<?xml version="1.0" encoding="UTF-8" standalone="no"?>
<!DOCTYPE svg PUBLIC "-//W3C//DTD SVG 1.1//EN"
 "http://www.w3.org/Graphics/SVG/1.1/DTD/svg11.dtd">
<!-- Generated by graphviz version 2.36.0 (20140111.2315)
 -->
<!-- Title: Signals Pages: 1 -->
<svg width="536pt" height="662pt"
 viewBox="0.00 0.00 536.00 661.82" xmlns="http://www.w3.org/2000/svg" xmlns:xlink="http://www.w3.org/1999/xlink">
<g id="graph0" class="graph" transform="scale(1 1) rotate(0) translate(4 657.816)">
<title>Signals</title>
<polygon fill="white" stroke="none" points="-4,4 -4,-657.816 532,-657.816 532,4 -4,4"/>
<!-- ECU1 -->
<g id="node1" class="node"><title>ECU1</title>
<polygon fill="#dd0304" stroke="#dd0304" points="54,-380.816 0,-380.816 0,-344.816 54,-344.816 54,-380.816"/>
<text text-anchor="middle" x="27" y="-359.116" font-family="Times,serif" font-size="14.00">ECU1</text>
</g>
<!-- ECU2 -->
<g id="node2" class="node"><title>ECU2</title>
<polygon fill="#c8a407" stroke="#c8a407" points="213,-470.816 159,-470.816 159,-434.816 213,-434.816 213,-470.816"/>
<text text-anchor="middle" x="186" y="-449.116" font-family="Times,serif" font-size="14.00">ECU2</text>
</g>
<!-- ECU1&#45;&gt;ECU2 -->
<g id="edge1" class="edge"><title>ECU1&#45;&gt;ECU2</title>
<g id="a_edge1"><a xlink:title="A">
<path fill="none" stroke="#7fc506" d="M28.0878,-380.912C28.7738,-435.633 34.0324,-597.593 72,-629.816 93.6869,-648.222 113.362,-647.039 136,-629.816 159.669,-611.809 174.862,-526.06 181.363,-480.856"/>
<polygon fill="#7fc506" stroke="#7fc506" points="184.848,-481.209 182.759,-470.822 177.915,-480.244 184.848,-481.209"/>
</a>
</g>
<text text-anchor="middle" x="104" y="-645.816" font-family="Times,serif" font-size="10.00" fill="#7fc506">subsystem&#45;1::A</text>
</g>
<!-- ECU1&#45;&gt;ECU2 -->
<g id="edge3" class="edge"><title>ECU1&#45;&gt;ECU2</title>
<g id="a_edge3"><a xlink:title="C">
<path fill="none" stroke="#0d610f" d="M28.5696,-381.076C30.5517,-431.097 38.9581,-568.43 72,-595.816 93.9,-613.968 112.855,-612.351 136,-595.816 172.417,-569.799 182.06,-514.983 184.439,-481.285"/>
<polygon fill="#0d610f" stroke="#0d610f" points="187.942,-481.322 184.981,-471.149 180.952,-480.948 187.942,-481.322"/>
</a>
</g>
<text text-anchor="middle" x="104" y="-611.816" font-family="Times,serif" font-size="10.00" fill="#0d610f">subsystem&#45;1::C</text>
</g>
<!-- ECU1&#45;&gt;ECU2 -->
<g id="edge4" class="edge"><title>ECU1&#45;&gt;ECU2</title>
<g id="a_edge4"><a xlink:title="B">
<path fill="none" stroke="#9d5e0d" d="M29.2007,-380.986C32.5726,-425.715 43.7908,-539.163 72,-561.816 94.1784,-579.627 112.117,-577.265 136,-561.816 163.407,-544.088 175.634,-506.983 180.988,-481.013"/>
<polygon fill="#9d5e0d" stroke="#9d5e0d" points="184.464,-481.461 182.831,-470.993 177.58,-480.195 184.464,-481.461"/>
</a>
</g>
<text text-anchor="middle" x="104" y="-576.816" font-family="Times,serif" font-size="10.00" fill="#9d5e0d">subsystem&#45;1::B</text>
</g>
<!-- ECU1&#45;&gt;ECU2 -->
<g id="edge11" class="edge"><title>ECU1&#45;&gt;ECU2</title>
<g id="a_edge11"><a xlink:title="B">
<path fill="none" stroke="#9d5e0d" d="M30.0936,-381.041C34.9956,-420.11 48.6079,-509.845 72,-527.816 94.5561,-545.146 110.984,-541.354 136,-527.816 154.524,-517.791 167.162,-497.385 174.957,-480.386"/>
<polygon fill="#9d5e0d" stroke="#9d5e0d" points="178.309,-481.448 178.995,-470.876 171.865,-478.712 178.309,-481.448"/>
</a>
</g>
<text text-anchor="middle" x="104" y="-541.816" font-family="Times,serif" font-size="10.00" fill="#9d5e0d">subsystem&#45;2::B</text>
</g>
<!-- ECU1&#45;&gt;ECU2 -->
<g id="edge13" class="edge"><title>ECU1&#45;&gt;ECU2</title>
<g id="a_edge13"><a xlink:title="E">
<path fill="none" stroke="#3a3e0a" d="M28.4678,-381.142C30.2862,-408.967 38.2821,-461.133 72,-484.816 95.2764,-501.165 108.737,-492.93 136,-484.816 142.263,-482.952 148.472,-480.005 154.258,-476.637"/>
<polygon fill="#3a3e0a" stroke="#3a3e0a" points="156.402,-479.421 162.95,-471.093 152.637,-473.52 156.402,-479.421"/>
</a>
</g>
<text text-anchor="middle" x="104" y="-496.816" font-family="Times,serif" font-size="10.00" fill="#3a3e0a">subsystem&#45;2::E</text>
</g>
<!-- ECU4 -->
<g id="node3" class="node"><title>ECU4</title>
<polygon fill="#a9b50f" stroke="#a9b50f" points="372,-275.816 318,-275.816 318,-239.816 372,-239.816 372,-275.816"/>
<text text-anchor="middle" x="345" y="-254.116" font-family="Times,serif" font-size="14.00">ECU4</text>
</g>
<!-- ECU1&#45;&gt;ECU4 -->
<g id="edge2" class="edge"><title>ECU1&#45;&gt;ECU4</title>
<g id="a_edge2"><a xlink:title="A">
<path fill="none" stroke="#7fc506" d="M49.5788,-344.733C56.3524,-340.02 64.1277,-335.512 72,-332.816 168.05,-299.93 211.081,-367.812 300,-318.816 313.712,-311.261 324.232,-297.402 331.541,-284.801"/>
<polygon fill="#7fc506" stroke="#7fc506" points="334.644,-286.422 336.296,-275.957 328.478,-283.107 334.644,-286.422"/>
</a>
</g>
<text text-anchor="middle" x="186" y="-338.816" font-family="Times,serif" font-size="10.00" fill="#7fc506">subsystem&#45;1::A</text>
</g>
<!-- ECU1&#45;&gt;ECU4 -->
<g id="edge5" class="edge"><title>ECU1&#45;&gt;ECU4</title>
<g id="a_edge5"><a xlink:title="D">
<path fill="none" stroke="#f6230e" d="M42.0095,-344.41C49.8614,-335.355 60.3982,-325.069 72,-318.816 163.077,-269.727 199.899,-297.982 300,-271.816 302.601,-271.136 305.275,-270.395 307.959,-269.619"/>
<polygon fill="#f6230e" stroke="#f6230e" points="309.043,-272.947 317.606,-266.708 307.022,-266.245 309.043,-272.947"/>
</a>
</g>
<text text-anchor="middle" x="186" y="-291.816" font-family="Times,serif" font-size="10.00" fill="#f6230e">subsystem&#45;1::D</text>
</g>
<!-- ECU1&#45;&gt;ECU4 -->
<g id="edge10" class="edge"><title>ECU1&#45;&gt;ECU4</title>
<g id="a_edge10"><a xlink:title="A">
<path fill="none" stroke="#7fc506" d="M34.0598,-344.759C40.7024,-327.756 53.0128,-302.859 72,-288.816 142.003,-237.044 251.104,-243.493 307.499,-251.35"/>
<polygon fill="#7fc506" stroke="#7fc506" points="307.315,-254.861 317.721,-252.871 308.346,-247.937 307.315,-254.861"/>
</a>
</g>
<text text-anchor="middle" x="186" y="-255.816" font-family="Times,serif" font-size="10.00" fill="#7fc506">subsystem&#45;2::A</text>
</g>
<!-- ECU1&#45;&gt;ECU4 -->
<g id="edge12" class="edge"><title>ECU1&#45;&gt;ECU4</title>
<g id="a_edge12"><a xlink:title="B">
<path fill="none" stroke="#9d5e0d" d="M30.456,-344.763C34.6717,-320.787 45.5498,-278.694 72,-254.816 136.98,-196.156 250.472,-224.021 308.15,-243.862"/>
<polygon fill="#9d5e0d" stroke="#9d5e0d" points="307.318,-247.28 317.913,-247.328 309.66,-240.684 307.318,-247.28"/>
</a>
</g>
<text text-anchor="middle" x="186" y="-223.816" font-family="Times,serif" font-size="10.00" fill="#9d5e0d">subsystem&#45;2::B</text>
</g>
<!-- ECU1&#45;&gt;ECU4 -->
<g id="edge14" class="edge"><title>ECU1&#45;&gt;ECU4</title>
<g id="a_edge14"><a xlink:title="E">
<path fill="none" stroke="#3a3e0a" d="M27.9955,-344.33C29.0543,-313.629 35.8855,-252.299 72,-219.816 147.343,-152.051 208.834,-176.574 300,-220.816 306.516,-223.978 312.873,-228.32 318.637,-232.919"/>
<polygon fill="#3a3e0a" stroke="#3a3e0a" points="316.734,-235.897 326.609,-239.734 321.282,-230.576 316.734,-235.897"/>
</a>
</g>
<text text-anchor="middle" x="186" y="-188.816" font-family="Times,serif" font-size="10.00" fill="#3a3e0a">subsystem&#45;2::E</text>
</g>
<!-- ECU1&#45;&gt;ECU4 -->
<g id="edge15" class="edge"><title>ECU1&#45;&gt;ECU4</title>
<g id="a_edge15"><a xlink:title="F">
<path fill="none" stroke="#800601" d="M29.8366,-344.677C34.457,-302.743 47.9461,-200.908 72,-177.816 145.185,-107.558 219.892,-126.566 300,-188.816 313.946,-199.653 324.723,-216.236 332.12,-230.429"/>
<polygon fill="#800601" stroke="#800601" points="329.156,-232.333 336.699,-239.773 335.442,-229.253 329.156,-232.333"/>
</a>
</g>
<text text-anchor="middle" x="186" y="-143.816" font-family="Times,serif" font-size="10.00" fill="#800601">subsystem&#45;2::F</text>
</g>
<!-- ECU2&#45;&gt;ECU1 -->
<g id="edge6" class="edge"><title>ECU2&#45;&gt;ECU1</title>
<g id="a_edge6"><a xlink:title="I">
<path fill="none" stroke="#dd7503" d="M158.542,-462.79C134.097,-470.194 97.7741,-476.427 72,-459.816 48.5462,-444.701 37.4544,-413.705 32.3,-390.801"/>
<polygon fill="#dd7503" stroke="#dd7503" points="35.7196,-390.052 30.3265,-380.932 28.8555,-391.424 35.7196,-390.052"/>
</a>
</g>
<text text-anchor="middle" x="104" y="-472.816" font-family="Times,serif" font-size="10.00" fill="#dd7503">subsystem&#45;1::I</text>
</g>
<!-- ECU2&#45;&gt;ECU1 -->
<g id="edge7" class="edge"><title>ECU2&#45;&gt;ECU1</title>
<g id="a_edge7"><a xlink:title="H">
<path fill="none" stroke="#c1d90f" d="M158.829,-448.776C130.03,-443.949 85.9627,-435.324 72,-425.816 58.8675,-416.873 48.4312,-402.617 41.0247,-389.926"/>
<polygon fill="#c1d90f" stroke="#c1d90f" points="44.0435,-388.151 36.1719,-381.06 37.9031,-391.512 44.0435,-388.151"/>
</a>
</g>
<text text-anchor="middle" x="104" y="-446.816" font-family="Times,serif" font-size="10.00" fill="#c1d90f">subsystem&#45;1::H</text>
</g>
<!-- ECU2&#45;&gt;ECU1 -->
<g id="edge16" class="edge"><title>ECU2&#45;&gt;ECU1</title>
<g id="a_edge16"><a xlink:title="I">
<path fill="none" stroke="#dd7503" d="M166.171,-434.691C157.516,-427.116 146.789,-418.722 136,-412.816 109.74,-398.442 98.9576,-404.835 72,-391.816 68.5862,-390.168 65.1247,-388.293 61.7205,-386.308"/>
<polygon fill="#dd7503" stroke="#dd7503" points="63.2639,-383.148 52.9149,-380.879 59.5901,-389.107 63.2639,-383.148"/>
</a>
</g>
<text text-anchor="middle" x="104" y="-415.816" font-family="Times,serif" font-size="10.00" fill="#dd7503">subsystem&#45;2::I</text>
</g>
<!-- ECU2&#45;&gt;ECU1 -->
<g id="edge18" class="edge"><title>ECU2&#45;&gt;ECU1</title>
<g id="a_edge18"><a xlink:title="K">
<path fill="none" stroke="#a5f30c" d="M178.13,-434.658C170.568,-417.326 156.672,-391.965 136,-378.816 114.737,-365.292 86.4321,-361.5 64.1334,-360.978"/>
<polygon fill="#a5f30c" stroke="#a5f30c" points="64.0523,-357.478 54.0428,-360.951 64.0333,-364.478 64.0523,-357.478"/>
</a>
</g>
<text text-anchor="middle" x="104" y="-381.816" font-family="Times,serif" font-size="10.00" fill="#a5f30c">subsystem&#45;2::K</text>
</g>
<!-- ECU2&#45;&gt;ECU1 -->
<g id="edge20" class="edge"><title>ECU2&#45;&gt;ECU1</title>
<g id="a_edge20"><a xlink:title="J">
<path fill="none" stroke="#ff4405" d="M179.306,-434.595C170.211,-406.804 151.818,-355.97 136,-345.816 114.572,-332.061 85.9455,-337.39 63.5483,-345.579"/>
<polygon fill="#ff4405" stroke="#ff4405" points="62.0588,-342.405 54.0579,-349.35 64.6436,-348.91 62.0588,-342.405"/>
</a>
</g>
<text text-anchor="middle" x="104" y="-348.816" font-family="Times,serif" font-size="10.00" fill="#ff4405">subsystem&#45;2::J</text>
</g>
<!-- ECU2&#45;&gt;ECU4 -->
<g id="edge17" class="edge"><title>ECU2&#45;&gt;ECU4</title>
<g id="a_edge17"><a xlink:title="I">
<path fill="none" stroke="#dd7503" d="M213.427,-455.134C238.904,-455.841 276.901,-452.64 300,-430.816 320.811,-411.154 334.502,-329.757 340.51,-285.98"/>
<polygon fill="#dd7503" stroke="#dd7503" points="343.991,-286.348 341.839,-275.974 337.052,-285.426 343.991,-286.348"/>
</a>
</g>
<text text-anchor="middle" x="268" y="-456.816" font-family="Times,serif" font-size="10.00" fill="#dd7503">subsystem&#45;2::I</text>
</g>
<!-- ECU2&#45;&gt;ECU4 -->
<g id="edge19" class="edge"><title>ECU2&#45;&gt;ECU4</title>
<g id="a_edge19"><a xlink:title="K">
<path fill="none" stroke="#a5f30c" d="M209.51,-434.565C217.536,-428.657 226.86,-422.444 236,-417.816 262.709,-404.294 278.943,-418.095 300,-396.816 329.464,-367.042 339.221,-317.676 342.438,-286.491"/>
<polygon fill="#a5f30c" stroke="#a5f30c" points="345.946,-286.546 343.325,-276.28 338.973,-285.94 345.946,-286.546"/>
</a>
</g>
<text text-anchor="middle" x="268" y="-420.816" font-family="Times,serif" font-size="10.00" fill="#a5f30c">subsystem&#45;2::K</text>
</g>
<!-- ECU2&#45;&gt;ECU4 -->
<g id="edge21" class="edge"><title>ECU2&#45;&gt;ECU4</title>
<g id="a_edge21"><a xlink:title="J">
<path fill="none" stroke="#ff4405" d="M195.626,-434.772C203.937,-419.195 217.905,-397.154 236,-383.816 260.098,-366.054 278.004,-383.124 300,-362.816 322.011,-342.494 333.382,-309.429 338.996,-285.834"/>
<polygon fill="#ff4405" stroke="#ff4405" points="342.418,-286.569 341.126,-276.053 335.579,-285.079 342.418,-286.569"/>
</a>
</g>
<text text-anchor="middle" x="268" y="-386.816" font-family="Times,serif" font-size="10.00" fill="#ff4405">subsystem&#45;2::J</text>
</g>
<!-- ECU4&#45;&gt;ECU1 -->
<g id="edge8" class="edge"><title>ECU4&#45;&gt;ECU1</title>
<g id="a_edge8"><a xlink:title="U">
<path fill="none" stroke="#4c6104" d="M344.412,-239.785C344.112,-207.451 338.591,-139.564 300,-102.816 226.616,-32.9361 141.47,-29.0441 72,-102.816 40.8285,-135.918 31.5399,-274.186 28.9423,-334.489"/>
<polygon fill="#4c6104" stroke="#4c6104" points="25.4325,-334.667 28.5313,-344.799 32.4269,-334.946 25.4325,-334.667"/>
</a>
</g>
<text text-anchor="middle" x="186" y="-56.8162" font-family="Times,serif" font-size="10.00" fill="#4c6104">subsystem&#45;1::U</text>
</g>
<!-- ECU4&#45;&gt;ECU1 -->
<g id="edge9" class="edge"><title>ECU4&#45;&gt;ECU1</title>
<g id="a_edge9"><a xlink:title="V">
<path fill="none" stroke="#520605" d="M342.405,-239.568C338.161,-195.161 325.157,-83.1742 300,-56.8162 230.033,16.4905 140.085,20.2411 72,-54.8162 35.0543,-95.5452 29.0445,-266.318 28.1321,-334.513"/>
<polygon fill="#520605" stroke="#520605" points="24.632,-334.504 28.0254,-344.541 31.6317,-334.579 24.632,-334.504"/>
</a>
</g>
<text text-anchor="middle" x="186" y="-7.81623" font-family="Times,serif" font-size="10.00" fill="#520605">subsystem&#45;1::V</text>
</g>
<!-- ECU3 -->
<g id="node4" class="node"><title>ECU3</title>
<polygon fill="#d1a503" stroke="#d1a503" points="528,-275.816 474,-275.816 474,-239.816 528,-239.816 528,-275.816"/>
<text text-anchor="middle" x="501" y="-254.116" font-family="Times,serif" font-size="14.00">ECU3</text>
</g>
<!-- ECU4&#45;&gt;ECU3 -->
<g id="edge26" class="edge"><title>ECU4&#45;&gt;ECU3</title>
<g id="a_edge26"><a xlink:title="W">
<path fill="none" stroke="#61e90c" d="M350.192,-275.91C355.716,-295.119 367.487,-324.505 390,-337.816 415.25,-352.746 430.75,-352.746 456,-337.816 474.996,-326.585 486.343,-303.91 492.744,-285.559"/>
<polygon fill="#61e90c" stroke="#61e90c" points="496.117,-286.5 495.808,-275.91 489.445,-284.381 496.117,-286.5"/>
</a>
</g>
<text text-anchor="middle" x="423" y="-351.816" font-family="Times,serif" font-size="10.00" fill="#61e90c">subsystem&#45;3::W</text>
</g>
<!-- ECU4&#45;&gt;ECU3 -->
<g id="edge27" class="edge"><title>ECU4&#45;&gt;ECU3</title>
<g id="a_edge27"><a xlink:title="V">
<path fill="none" stroke="#520605" d="M368.013,-275.904C374.679,-280.354 382.288,-284.503 390,-286.816 418.097,-295.243 427.903,-295.243 456,-286.816 460.458,-285.479 464.882,-283.528 469.11,-281.26"/>
<polygon fill="#520605" stroke="#520605" points="471.233,-284.067 477.987,-275.904 467.616,-278.073 471.233,-284.067"/>
</a>
</g>
<text text-anchor="middle" x="423" y="-295.816" font-family="Times,serif" font-size="10.00" fill="#520605">subsystem&#45;3::V</text>
</g>
<!-- ECU3&#45;&gt;ECU4 -->
<g id="edge22" class="edge"><title>ECU3&#45;&gt;ECU4</title>
<g id="a_edge22"><a xlink:title="Q">
<path fill="none" stroke="#f09506" d="M473.71,-266.209C467.934,-267.708 461.807,-269.039 456,-269.816 426.926,-273.71 419.074,-273.71 390,-269.816 387.459,-269.476 384.857,-269.03 382.251,-268.51"/>
<polygon fill="#f09506" stroke="#f09506" points="382.821,-265.05 372.29,-266.209 381.246,-271.87 382.821,-265.05"/>
</a>
</g>
<text text-anchor="middle" x="423" y="-274.816" font-family="Times,serif" font-size="10.00" fill="#f09506">subsystem&#45;3::Q</text>
</g>
<!-- ECU3&#45;&gt;ECU4 -->
<g id="edge23" class="edge"><title>ECU3&#45;&gt;ECU4</title>
<g id="a_edge23"><a xlink:title="P">
<path fill="none" stroke="#44c209" d="M473.943,-257.126C468.044,-256.997 461.807,-256.882 456,-256.816 426.669,-256.483 419.331,-256.483 390,-256.816 387.46,-256.845 384.837,-256.883 382.196,-256.928"/>
<polygon fill="#44c209" stroke="#44c209" points="381.986,-253.431 372.057,-257.126 382.123,-260.43 381.986,-253.431"/>
</a>
</g>
<text text-anchor="middle" x="423" y="-259.816" font-family="Times,serif" font-size="10.00" fill="#44c209">subsystem&#45;3::P</text>
</g>
<!-- ECU3&#45;&gt;ECU4 -->
<g id="edge24" class="edge"><title>ECU3&#45;&gt;ECU4</title>
<g id="a_edge24"><a xlink:title="R">
<path fill="none" stroke="#e1e10d" d="M473.937,-245.941C468.147,-243.816 461.957,-241.927 456,-240.816 427.164,-235.439 418.836,-235.439 390,-240.816 387.301,-241.32 384.553,-241.983 381.817,-242.755"/>
<polygon fill="#e1e10d" stroke="#e1e10d" points="380.482,-239.509 372.063,-245.941 382.655,-246.163 380.482,-239.509"/>
</a>
</g>
<text text-anchor="middle" x="423" y="-243.816" font-family="Times,serif" font-size="10.00" fill="#e1e10d">subsystem&#45;3::R</text>
</g>
<!-- ECU3&#45;&gt;ECU4 -->
<g id="edge25" class="edge"><title>ECU3&#45;&gt;ECU4</title>
<g id="a_edge25"><a xlink:title="R">
<path fill="none" stroke="#e1e10d" d="M483.865,-239.5C476.237,-232.206 466.502,-224.645 456,-220.816 428.441,-210.769 417.559,-210.769 390,-220.816 382.78,-223.449 375.922,-227.845 369.862,-232.706"/>
<polygon fill="#e1e10d" stroke="#e1e10d" points="367.334,-230.268 362.135,-239.5 371.956,-235.526 367.334,-230.268"/>
</a>
</g>
<text text-anchor="middle" x="423" y="-223.816" font-family="Times,serif" font-size="10.00" fill="#e1e10d">subsystem&#45;3::R</text>
</g>
<!-- ECU3&#45;&gt;ECU4 -->
<g id="edge28" class="edge"><title>ECU3&#45;&gt;ECU4</title>
<g id="a_edge28"><a xlink:title="O">
<path fill="none" stroke="#f18602" d="M492.363,-239.692C485.257,-225.414 473.168,-206.516 456,-197.816 429.834,-184.557 416.166,-184.557 390,-197.816 376.319,-204.749 365.863,-218.158 358.584,-230.544"/>
<polygon fill="#f18602" stroke="#f18602" points="355.315,-229.231 353.637,-239.692 361.473,-232.561 355.315,-229.231"/>
</a>
</g>
<text text-anchor="middle" x="423" y="-200.816" font-family="Times,serif" font-size="10.00" fill="#f18602">subsystem&#45;3::O</text>
</g>
</g>
</svg>
