<?xml version="1.0" encoding="UTF-8" standalone="no"?>
<!DOCTYPE svg PUBLIC "-//W3C//DTD SVG 1.1//EN"
 "http://www.w3.org/Graphics/SVG/1.1/DTD/svg11.dtd">
<!-- Generated by graphviz version 2.36.0 (20140111.2315)
 -->
<!-- Title: Signals Pages: 1 -->
<svg width="212pt" height="105pt"
 viewBox="0.00 0.00 212.00 105.00" xmlns="http://www.w3.org/2000/svg" xmlns:xlink="http://www.w3.org/1999/xlink">
<g id="graph0" class="graph" transform="scale(1 1) rotate(0) translate(4 101)">
<title>Signals</title>
<polygon fill="white" stroke="none" points="-4,4 -4,-101 208,-101 208,4 -4,4"/>
<!-- ECU1 -->
<g id="node1" class="node"><title>ECU1</title>
<polygon fill="#dd0304" stroke="#dd0304" points="204,-97 150,-97 150,-61 204,-61 204,-97"/>
<text text-anchor="middle" x="177" y="-75.3" font-family="Times,serif" font-size="14.00">ECU1</text>
</g>
<!-- ECU2 -->
<g id="node2" class="node"><title>ECU2</title>
<polygon fill="#c8a407" stroke="#c8a407" points="54,-70 0,-70 0,-34 54,-34 54,-70"/>
<text text-anchor="middle" x="27" y="-48.3" font-family="Times,serif" font-size="14.00">ECU2</text>
</g>
<!-- ECU2&#45;&gt;ECU1 -->
<g id="edge1" class="edge"><title>ECU2&#45;&gt;ECU1</title>
<g id="a_edge1"><a xlink:title="I">
<path fill="none" stroke="#dd7503" d="M54.3972,-59.7653C60.1664,-61.3034 66.2632,-62.8087 72,-64 94.3588,-68.643 119.718,-72.3318 139.798,-74.8895"/>
<polygon fill="#dd7503" stroke="#dd7503" points="139.419,-78.3693 149.773,-76.123 140.278,-71.4222 139.419,-78.3693"/>
</a>
</g>
<text text-anchor="middle" x="102" y="-76" font-family="Times,serif" font-size="10.00" fill="#dd7503">subsystem&#45;1::I</text>
</g>
<!-- ECU2&#45;&gt;ECU1 -->
<g id="edge2" class="edge"><title>ECU2&#45;&gt;ECU1</title>
<g id="a_edge2"><a xlink:title="I">
<path fill="none" stroke="#dd7503" d="M54.2121,-47.6269C75.5915,-45.0301 106.342,-43.5285 132,-51 136.108,-52.1961 140.198,-53.9046 144.137,-55.8955"/>
<polygon fill="#dd7503" stroke="#dd7503" points="142.572,-59.0318 152.992,-60.9454 146.039,-52.9511 142.572,-59.0318"/>
</a>
</g>
<text text-anchor="middle" x="102" y="-54" font-family="Times,serif" font-size="10.00" fill="#dd7503">subsystem&#45;2::I</text>
</g>
<!-- ECU4 -->
<g id="node3" class="node"><title>ECU4</title>
<polygon fill="#a9b50f" stroke="#a9b50f" points="204,-36 150,-36 150,-0 204,-0 204,-36"/>
<text text-anchor="middle" x="177" y="-14.3" font-family="Times,serif" font-size="14.00">ECU4</text>
</g>
<!-- ECU2&#45;&gt;ECU4 -->
<g id="edge3" class="edge"><title>ECU2&#45;&gt;ECU4</title>
<g id="a_edge3"><a xlink:title="I">
<path fill="none" stroke="#dd7503" d="M54.3822,-36.9602C60.0473,-34.2616 66.1063,-31.754 72,-30 93.955,-23.466 119.499,-20.4571 139.777,-19.086"/>
<polygon fill="#dd7503" stroke="#dd7503" points="140.071,-22.575 149.854,-18.5083 139.67,-15.5865 140.071,-22.575"/>
</a>
</g>
<text text-anchor="middle" x="102" y="-33" font-family="Times,serif" font-size="10.00" fill="#dd7503">subsystem&#45;2::I</text>
</g>
</g>
</svg>
