<?xml version="1.0" encoding="UTF-8" standalone="no"?>
<!DOCTYPE svg PUBLIC "-//W3C//DTD SVG 1.1//EN"
 "http://www.w3.org/Graphics/SVG/1.1/DTD/svg11.dtd">
<!-- Generated by graphviz version 2.36.0 (20140111.2315)
 -->
<!-- Title: Signals Pages: 1 -->
<svg width="382pt" height="815pt"
 viewBox="0.00 0.00 382.00 814.69" xmlns="http://www.w3.org/2000/svg" xmlns:xlink="http://www.w3.org/1999/xlink">
<g id="graph0" class="graph" transform="scale(1 1) rotate(0) translate(4 810.687)">
<title>Signals</title>
<polygon fill="white" stroke="none" points="-4,4 -4,-810.687 378,-810.687 378,4 -4,4"/>
<!-- ECU1 -->
<g id="node1" class="node"><title>ECU1</title>
<polygon fill="#dd0304" stroke="#dd0304" points="54,-533.687 0,-533.687 0,-497.687 54,-497.687 54,-533.687"/>
<text text-anchor="middle" x="27" y="-511.987" font-family="Times,serif" font-size="14.00">ECU1</text>
</g>
<!-- ECU2 -->
<g id="node2" class="node"><title>ECU2</title>
<polygon fill="#c8a407" stroke="#c8a407" points="213,-623.687 159,-623.687 159,-587.687 213,-587.687 213,-623.687"/>
<text text-anchor="middle" x="186" y="-601.987" font-family="Times,serif" font-size="14.00">ECU2</text>
</g>
<!-- ECU1&#45;&gt;ECU2 -->
<g id="edge1" class="edge"><title>ECU1&#45;&gt;ECU2</title>
<g id="a_edge1"><a xlink:title="A">
<path fill="none" stroke="#7fc506" d="M28.0878,-533.783C28.7738,-588.505 34.0324,-750.465 72,-782.687 93.6869,-801.093 113.362,-799.91 136,-782.687 159.669,-764.681 174.862,-678.931 181.363,-633.728"/>
<polygon fill="#7fc506" stroke="#7fc506" points="184.848,-634.08 182.759,-623.693 177.915,-633.116 184.848,-634.08"/>
</a>
</g>
<text text-anchor="middle" x="104" y="-798.687" font-family="Times,serif" font-size="10.00" fill="#7fc506">subsystem&#45;1::A</text>
</g>
<!-- ECU1&#45;&gt;ECU2 -->
<g id="edge3" class="edge"><title>ECU1&#45;&gt;ECU2</title>
<g id="a_edge3"><a xlink:title="C">
<path fill="none" stroke="#0d610f" d="M28.5696,-533.947C30.5517,-583.968 38.9581,-721.301 72,-748.687 93.9,-766.839 112.855,-765.223 136,-748.687 172.417,-722.67 182.06,-667.854 184.439,-634.156"/>
<polygon fill="#0d610f" stroke="#0d610f" points="187.942,-634.193 184.981,-624.021 180.952,-633.819 187.942,-634.193"/>
</a>
</g>
<text text-anchor="middle" x="104" y="-764.687" font-family="Times,serif" font-size="10.00" fill="#0d610f">subsystem&#45;1::C</text>
</g>
<!-- ECU1&#45;&gt;ECU2 -->
<g id="edge4" class="edge"><title>ECU1&#45;&gt;ECU2</title>
<g id="a_edge4"><a xlink:title="B">
<path fill="none" stroke="#9d5e0d" d="M29.2007,-533.857C32.5726,-578.586 43.7908,-692.034 72,-714.687 94.1784,-732.498 112.117,-730.137 136,-714.687 163.407,-696.959 175.634,-659.855 180.988,-633.885"/>
<polygon fill="#9d5e0d" stroke="#9d5e0d" points="184.464,-634.332 182.831,-623.864 177.58,-633.066 184.464,-634.332"/>
</a>
</g>
<text text-anchor="middle" x="104" y="-729.687" font-family="Times,serif" font-size="10.00" fill="#9d5e0d">subsystem&#45;1::B</text>
</g>
<!-- ECU1&#45;&gt;ECU2 -->
<g id="edge11" class="edge"><title>ECU1&#45;&gt;ECU2</title>
<g id="a_edge11"><a xlink:title="B">
<path fill="none" stroke="#9d5e0d" d="M30.0936,-533.912C34.9956,-572.981 48.6079,-662.716 72,-680.687 94.5561,-698.017 110.984,-694.226 136,-680.687 154.524,-670.663 167.162,-650.257 174.957,-633.258"/>
<polygon fill="#9d5e0d" stroke="#9d5e0d" points="178.309,-634.319 178.995,-623.747 171.865,-631.584 178.309,-634.319"/>
</a>
</g>
<text text-anchor="middle" x="104" y="-694.687" font-family="Times,serif" font-size="10.00" fill="#9d5e0d">subsystem&#45;2::B</text>
</g>
<!-- ECU1&#45;&gt;ECU2 -->
<g id="edge13" class="edge"><title>ECU1&#45;&gt;ECU2</title>
<g id="a_edge13"><a xlink:title="E">
<path fill="none" stroke="#3a3e0a" d="M28.4678,-534.013C30.2862,-561.838 38.2821,-614.004 72,-637.687 95.2764,-654.037 108.737,-645.801 136,-637.687 142.263,-635.824 148.472,-632.877 154.258,-629.508"/>
<polygon fill="#3a3e0a" stroke="#3a3e0a" points="156.402,-632.292 162.95,-623.964 152.637,-626.391 156.402,-632.292"/>
</a>
</g>
<text text-anchor="middle" x="104" y="-649.687" font-family="Times,serif" font-size="10.00" fill="#3a3e0a">subsystem&#45;2::E</text>
</g>
<!-- ECU4 -->
<g id="node3" class="node"><title>ECU4</title>
<polygon fill="#a9b50f" stroke="#a9b50f" points="374,-274.687 320,-274.687 320,-238.687 374,-238.687 374,-274.687"/>
<text text-anchor="middle" x="347" y="-252.987" font-family="Times,serif" font-size="14.00">ECU4</text>
</g>
<!-- ECU1&#45;&gt;ECU4 -->
<g id="edge2" class="edge"><title>ECU1&#45;&gt;ECU4</title>
<g id="a_edge2"><a xlink:title="A">
<path fill="none" stroke="#7fc506" d="M49.5779,-497.601C56.3514,-492.888 64.127,-488.381 72,-485.687 168.899,-452.54 224.661,-538.82 302,-471.687 329.793,-447.563 340.696,-337.408 344.373,-284.807"/>
<polygon fill="#7fc506" stroke="#7fc506" points="347.867,-285.01 345.033,-274.802 340.882,-284.549 347.867,-285.01"/>
</a>
</g>
<text text-anchor="middle" x="186" y="-498.687" font-family="Times,serif" font-size="10.00" fill="#7fc506">subsystem&#45;1::A</text>
</g>
<!-- ECU1&#45;&gt;ECU4 -->
<g id="edge5" class="edge"><title>ECU1&#45;&gt;ECU4</title>
<g id="a_edge5"><a xlink:title="D">
<path fill="none" stroke="#f6230e" d="M42.9676,-497.306C50.7727,-488.886 60.9818,-479.508 72,-473.687 164.413,-424.866 226.407,-496.863 302,-424.687 322.003,-405.589 335.932,-327.589 342.221,-284.915"/>
<polygon fill="#f6230e" stroke="#f6230e" points="345.705,-285.278 343.654,-274.884 338.775,-284.288 345.705,-285.278"/>
</a>
</g>
<text text-anchor="middle" x="186" y="-461.687" font-family="Times,serif" font-size="10.00" fill="#f6230e">subsystem&#45;1::D</text>
</g>
<!-- ECU1&#45;&gt;ECU4 -->
<g id="edge10" class="edge"><title>ECU1&#45;&gt;ECU4</title>
<g id="a_edge10"><a xlink:title="A">
<path fill="none" stroke="#7fc506" d="M36.1088,-497.482C43.496,-482.864 55.7325,-462.838 72,-450.687 157.925,-386.508 224.61,-451.936 302,-377.687 327.631,-353.097 338.396,-312.413 342.874,-285.089"/>
<polygon fill="#7fc506" stroke="#7fc506" points="346.368,-285.383 344.345,-274.983 339.441,-284.375 346.368,-285.383"/>
</a>
</g>
<text text-anchor="middle" x="186" y="-421.687" font-family="Times,serif" font-size="10.00" fill="#7fc506">subsystem&#45;2::A</text>
</g>
<!-- ECU1&#45;&gt;ECU4 -->
<g id="edge12" class="edge"><title>ECU1&#45;&gt;ECU4</title>
<g id="a_edge12"><a xlink:title="B">
<path fill="none" stroke="#9d5e0d" d="M31.651,-497.68C36.9477,-475.93 48.7788,-439.547 72,-417.687 151.578,-342.775 218.269,-400.927 302,-330.687 316.793,-318.278 327.861,-299.548 335.196,-284.037"/>
<polygon fill="#9d5e0d" stroke="#9d5e0d" points="338.403,-285.439 339.281,-274.881 332.011,-282.587 338.403,-285.439"/>
</a>
</g>
<text text-anchor="middle" x="186" y="-378.687" font-family="Times,serif" font-size="10.00" fill="#9d5e0d">subsystem&#45;2::B</text>
</g>
<!-- ECU1&#45;&gt;ECU4 -->
<g id="edge14" class="edge"><title>ECU1&#45;&gt;ECU4</title>
<g id="a_edge14"><a xlink:title="E">
<path fill="none" stroke="#3a3e0a" d="M28.8829,-497.332C31.2505,-467.976 39.9616,-410.258 72,-375.687 146.837,-294.936 203.615,-333.101 302,-283.687 304.963,-282.199 307.989,-280.577 310.998,-278.891"/>
<polygon fill="#3a3e0a" stroke="#3a3e0a" points="313.012,-281.768 319.891,-273.71 309.488,-275.72 313.012,-281.768"/>
</a>
</g>
<text text-anchor="middle" x="186" y="-325.687" font-family="Times,serif" font-size="10.00" fill="#3a3e0a">subsystem&#45;2::E</text>
</g>
<!-- ECU1&#45;&gt;ECU4 -->
<g id="edge15" class="edge"><title>ECU1&#45;&gt;ECU4</title>
<g id="a_edge15"><a xlink:title="F">
<path fill="none" stroke="#800601" d="M29.9871,-497.627C34.9796,-455.308 49.2965,-351.375 72,-325.687 103.299,-290.275 242.718,-269.08 309.76,-260.763"/>
<polygon fill="#800601" stroke="#800601" points="310.364,-264.215 319.87,-259.538 309.522,-257.266 310.364,-264.215"/>
</a>
</g>
<text text-anchor="middle" x="186" y="-291.687" font-family="Times,serif" font-size="10.00" fill="#800601">subsystem&#45;2::F</text>
</g>
<!-- ECU2&#45;&gt;ECU1 -->
<g id="edge6" class="edge"><title>ECU2&#45;&gt;ECU1</title>
<g id="a_edge6"><a xlink:title="I">
<path fill="none" stroke="#dd7503" d="M158.542,-615.661C134.097,-623.065 97.7741,-629.298 72,-612.687 48.5462,-597.572 37.4544,-566.576 32.3,-543.672"/>
<polygon fill="#dd7503" stroke="#dd7503" points="35.7196,-542.923 30.3265,-533.803 28.8555,-544.296 35.7196,-542.923"/>
</a>
</g>
<text text-anchor="middle" x="104" y="-625.687" font-family="Times,serif" font-size="10.00" fill="#dd7503">subsystem&#45;1::I</text>
</g>
<!-- ECU2&#45;&gt;ECU1 -->
<g id="edge7" class="edge"><title>ECU2&#45;&gt;ECU1</title>
<g id="a_edge7"><a xlink:title="H">
<path fill="none" stroke="#c1d90f" d="M158.829,-601.647C130.03,-596.82 85.9627,-588.196 72,-578.687 58.8675,-569.745 48.4312,-555.488 41.0247,-542.797"/>
<polygon fill="#c1d90f" stroke="#c1d90f" points="44.0435,-541.022 36.1719,-533.931 37.9031,-544.383 44.0435,-541.022"/>
</a>
</g>
<text text-anchor="middle" x="104" y="-599.687" font-family="Times,serif" font-size="10.00" fill="#c1d90f">subsystem&#45;1::H</text>
</g>
<!-- ECU2&#45;&gt;ECU1 -->
<g id="edge16" class="edge"><title>ECU2&#45;&gt;ECU1</title>
<g id="a_edge16"><a xlink:title="I">
<path fill="none" stroke="#dd7503" d="M166.171,-587.563C157.516,-579.988 146.789,-571.593 136,-565.687 109.74,-551.313 98.9576,-557.706 72,-544.687 68.5862,-543.039 65.1247,-541.164 61.7205,-539.18"/>
<polygon fill="#dd7503" stroke="#dd7503" points="63.2639,-536.02 52.9149,-533.75 59.5901,-541.978 63.2639,-536.02"/>
</a>
</g>
<text text-anchor="middle" x="104" y="-568.687" font-family="Times,serif" font-size="10.00" fill="#dd7503">subsystem&#45;2::I</text>
</g>
<!-- ECU2&#45;&gt;ECU1 -->
<g id="edge18" class="edge"><title>ECU2&#45;&gt;ECU1</title>
<g id="a_edge18"><a xlink:title="K">
<path fill="none" stroke="#a5f30c" d="M178.13,-587.529C170.568,-570.197 156.672,-544.836 136,-531.687 114.737,-518.163 86.4321,-514.371 64.1334,-513.85"/>
<polygon fill="#a5f30c" stroke="#a5f30c" points="64.0523,-510.35 54.0428,-513.823 64.0333,-517.35 64.0523,-510.35"/>
</a>
</g>
<text text-anchor="middle" x="104" y="-534.687" font-family="Times,serif" font-size="10.00" fill="#a5f30c">subsystem&#45;2::K</text>
</g>
<!-- ECU2&#45;&gt;ECU1 -->
<g id="edge20" class="edge"><title>ECU2&#45;&gt;ECU1</title>
<g id="a_edge20"><a xlink:title="J">
<path fill="none" stroke="#ff4405" d="M179.306,-587.466C170.211,-559.676 151.818,-508.842 136,-498.687 114.572,-484.933 85.9455,-490.261 63.5483,-498.45"/>
<polygon fill="#ff4405" stroke="#ff4405" points="62.0588,-495.276 54.0579,-502.221 64.6436,-501.781 62.0588,-495.276"/>
</a>
</g>
<text text-anchor="middle" x="104" y="-501.687" font-family="Times,serif" font-size="10.00" fill="#ff4405">subsystem&#45;2::J</text>
</g>
<!-- ECU2&#45;&gt;ECU4 -->
<g id="edge17" class="edge"><title>ECU2&#45;&gt;ECU4</title>
<g id="a_edge17"><a xlink:title="I">
<path fill="none" stroke="#dd7503" d="M213.464,-608.668C239.821,-610.032 279.507,-607.46 302,-583.687 342.444,-540.944 346.311,-356.191 346.261,-284.899"/>
<polygon fill="#dd7503" stroke="#dd7503" points="349.761,-284.84 346.227,-274.852 342.761,-284.863 349.761,-284.84"/>
</a>
</g>
<text text-anchor="middle" x="269" y="-610.687" font-family="Times,serif" font-size="10.00" fill="#dd7503">subsystem&#45;2::I</text>
</g>
<!-- ECU2&#45;&gt;ECU4 -->
<g id="edge19" class="edge"><title>ECU2&#45;&gt;ECU4</title>
<g id="a_edge19"><a xlink:title="K">
<path fill="none" stroke="#a5f30c" d="M209.486,-587.389C217.511,-581.478 226.839,-575.274 236,-570.687 263.526,-556.907 282.031,-573.114 302,-549.687 335.743,-510.103 343.632,-350.199 345.458,-284.786"/>
<polygon fill="#a5f30c" stroke="#a5f30c" points="348.957,-284.862 345.71,-274.777 341.959,-284.686 348.957,-284.862"/>
</a>
</g>
<text text-anchor="middle" x="269" y="-573.687" font-family="Times,serif" font-size="10.00" fill="#a5f30c">subsystem&#45;2::K</text>
</g>
<!-- ECU2&#45;&gt;ECU4 -->
<g id="edge21" class="edge"><title>ECU2&#45;&gt;ECU4</title>
<g id="a_edge21"><a xlink:title="J">
<path fill="none" stroke="#ff4405" d="M195.597,-587.604C203.888,-572.001 217.845,-549.943 236,-536.687 260.861,-518.535 281.807,-538.921 302,-515.687 331.646,-481.579 341.76,-345.081 344.817,-285.148"/>
<polygon fill="#ff4405" stroke="#ff4405" points="348.326,-285.047 345.309,-274.891 341.334,-284.711 348.326,-285.047"/>
</a>
</g>
<text text-anchor="middle" x="269" y="-539.687" font-family="Times,serif" font-size="10.00" fill="#ff4405">subsystem&#45;2::J</text>
</g>
<!-- ECU4&#45;&gt;ECU1 -->
<g id="edge8" class="edge"><title>ECU4&#45;&gt;ECU1</title>
<g id="a_edge8"><a xlink:title="U">
<path fill="none" stroke="#4c6104" d="M319.665,-251.348C293.884,-246.412 253.43,-239.439 218,-236.687 152.76,-231.621 116.86,-208.049 72,-255.687 40.8285,-288.789 31.5399,-427.057 28.9423,-487.36"/>
<polygon fill="#4c6104" stroke="#4c6104" points="25.4325,-487.538 28.5313,-497.67 32.4269,-487.817 25.4325,-487.538"/>
</a>
</g>
<text text-anchor="middle" x="186" y="-239.687" font-family="Times,serif" font-size="10.00" fill="#4c6104">subsystem&#45;1::U</text>
</g>
<!-- ECU4&#45;&gt;ECU1 -->
<g id="edge9" class="edge"><title>ECU4&#45;&gt;ECU1</title>
<g id="a_edge9"><a xlink:title="V">
<path fill="none" stroke="#520605" d="M319.896,-241.676C265.64,-212.661 140.086,-157.255 72,-222.687 34.4965,-258.73 28.7881,-420.688 28.0445,-487.12"/>
<polygon fill="#520605" stroke="#520605" points="24.5434,-487.26 27.9619,-497.288 31.5431,-487.317 24.5434,-487.26"/>
</a>
</g>
<text text-anchor="middle" x="186" y="-203.687" font-family="Times,serif" font-size="10.00" fill="#520605">subsystem&#45;1::V</text>
</g>
<!-- ECU3 -->
<g id="node4" class="node"><title>ECU3</title>
<polygon fill="#d1a503" stroke="#d1a503" points="213,-109.687 159,-109.687 159,-73.6875 213,-73.6875 213,-109.687"/>
<text text-anchor="middle" x="186" y="-87.9875" font-family="Times,serif" font-size="14.00">ECU3</text>
</g>
<!-- ECU3&#45;&gt;ECU4 -->
<g id="edge22" class="edge"><title>ECU3&#45;&gt;ECU4</title>
<g id="a_edge22"><a xlink:title="Q">
<path fill="none" stroke="#f09506" d="M193.8,-109.764C201.465,-127.834 215.582,-155.234 236,-171.687 260.188,-191.178 277.167,-176.025 302,-194.687 314.276,-203.913 324.482,-217.559 331.963,-229.701"/>
<polygon fill="#f09506" stroke="#f09506" points="329.086,-231.716 337.143,-238.596 335.135,-228.193 329.086,-231.716"/>
</a>
</g>
<text text-anchor="middle" x="269" y="-197.687" font-family="Times,serif" font-size="10.00" fill="#f09506">subsystem&#45;3::Q</text>
</g>
<!-- ECU3&#45;&gt;ECU4 -->
<g id="edge23" class="edge"><title>ECU3&#45;&gt;ECU4</title>
<g id="a_edge23"><a xlink:title="P">
<path fill="none" stroke="#44c209" d="M202.697,-109.922C211.637,-119.34 223.523,-130.361 236,-137.687 262.545,-153.274 279.029,-138.196 302,-158.687 322.545,-177.015 334.026,-206.792 340.066,-228.72"/>
<polygon fill="#44c209" stroke="#44c209" points="336.688,-229.64 342.54,-238.472 343.473,-227.918 336.688,-229.64"/>
</a>
</g>
<text text-anchor="middle" x="269" y="-161.687" font-family="Times,serif" font-size="10.00" fill="#44c209">subsystem&#45;3::P</text>
</g>
<!-- ECU3&#45;&gt;ECU4 -->
<g id="edge24" class="edge"><title>ECU3&#45;&gt;ECU4</title>
<g id="a_edge24"><a xlink:title="R">
<path fill="none" stroke="#e1e10d" d="M213.268,-98.5637C246.185,-107.277 298.72,-121.543 302,-124.687 330.577,-152.081 340.598,-198.493 344.109,-228.35"/>
<polygon fill="#e1e10d" stroke="#e1e10d" points="340.65,-228.935 345.131,-238.535 347.615,-228.236 340.65,-228.935"/>
</a>
</g>
<text text-anchor="middle" x="269" y="-127.687" font-family="Times,serif" font-size="10.00" fill="#e1e10d">subsystem&#45;3::R</text>
</g>
<!-- ECU3&#45;&gt;ECU4 -->
<g id="edge25" class="edge"><title>ECU3&#45;&gt;ECU4</title>
<g id="a_edge25"><a xlink:title="R">
<path fill="none" stroke="#e1e10d" d="M213.183,-83.0271C238.572,-76.4022 276.84,-71.3278 302,-90.6875 323.729,-107.407 336.946,-185.779 342.667,-228.59"/>
<polygon fill="#e1e10d" stroke="#e1e10d" points="339.214,-229.177 343.961,-238.649 346.156,-228.285 339.214,-229.177"/>
</a>
</g>
<text text-anchor="middle" x="269" y="-93.6875" font-family="Times,serif" font-size="10.00" fill="#e1e10d">subsystem&#45;3::R</text>
</g>
<!-- ECU3&#45;&gt;ECU4 -->
<g id="edge26" class="edge"><title>ECU3&#45;&gt;ECU4</title>
<g id="a_edge26"><a xlink:title="W">
<path fill="none" stroke="#61e90c" d="M213.001,-73.5528C238.251,-58.3925 276.418,-42.2578 302,-62.6875 327.591,-83.1241 339.413,-179.757 343.823,-228.47"/>
<polygon fill="#61e90c" stroke="#61e90c" points="340.354,-228.984 344.698,-238.647 347.328,-228.384 340.354,-228.984"/>
</a>
</g>
<text text-anchor="middle" x="269" y="-65.6875" font-family="Times,serif" font-size="10.00" fill="#61e90c">subsystem&#45;3::W</text>
</g>
<!-- ECU3&#45;&gt;ECU4 -->
<g id="edge27" class="edge"><title>ECU3&#45;&gt;ECU4</title>
<g id="a_edge27"><a xlink:title="V">
<path fill="none" stroke="#520605" d="M197.98,-73.497C206.591,-61.1267 219.811,-45.7677 236,-38.6875 262.875,-26.9331 279.299,-20.1105 302,-38.6875 330.933,-62.3643 341.271,-174.971 344.59,-228.412"/>
<polygon fill="#520605" stroke="#520605" points="341.106,-228.786 345.18,-238.566 348.094,-228.38 341.106,-228.786"/>
</a>
</g>
<text text-anchor="middle" x="269" y="-41.6875" font-family="Times,serif" font-size="10.00" fill="#520605">subsystem&#45;3::V</text>
</g>
<!-- ECU3&#45;&gt;ECU4 -->
<g id="edge28" class="edge"><title>ECU3&#45;&gt;ECU4</title>
<g id="a_edge28"><a xlink:title="O">
<path fill="none" stroke="#f18602" d="M192.475,-73.3989C199.267,-54.3599 212.872,-25.5581 236,-12.6875 261.632,1.57629 279.493,6.12405 302,-12.6875 334.569,-39.9088 343.07,-170.008 345.257,-228.313"/>
<polygon fill="#f18602" stroke="#f18602" points="341.76,-228.447 345.597,-238.323 348.756,-228.21 341.76,-228.447"/>
</a>
</g>
<text text-anchor="middle" x="269" y="-15.6875" font-family="Times,serif" font-size="10.00" fill="#f18602">subsystem&#45;3::O</text>
</g>
</g>
</svg>
