<?xml version="1.0" encoding="UTF-8" standalone="no"?>
<!DOCTYPE svg PUBLIC "-//W3C//DTD SVG 1.1//EN"
 "http://www.w3.org/Graphics/SVG/1.1/DTD/svg11.dtd">
<!-- Generated by graphviz version 2.36.0 (20140111.2315)
 -->
<!-- Title: Signals Pages: 1 -->
<svg width="216pt" height="105pt"
 viewBox="0.00 0.00 216.00 105.00" xmlns="http://www.w3.org/2000/svg" xmlns:xlink="http://www.w3.org/1999/xlink">
<g id="graph0" class="graph" transform="scale(1 1) rotate(0) translate(4 101)">
<title>Signals</title>
<polygon fill="white" stroke="none" points="-4,4 -4,-101 212,-101 212,4 -4,4"/>
<!-- ECU1 -->
<g id="node1" class="node"><title>ECU1</title>
<polygon fill="#dd0304" stroke="#dd0304" points="54,-63 0,-63 0,-27 54,-27 54,-63"/>
<text text-anchor="middle" x="27" y="-41.3" font-family="Times,serif" font-size="14.00">ECU1</text>
</g>
<!-- ECU2 -->
<g id="node2" class="node"><title>ECU2</title>
<polygon fill="#c8a407" stroke="#c8a407" points="208,-97 154,-97 154,-61 208,-61 208,-97"/>
<text text-anchor="middle" x="181" y="-75.3" font-family="Times,serif" font-size="14.00">ECU2</text>
</g>
<!-- ECU1&#45;&gt;ECU2 -->
<g id="edge1" class="edge"><title>ECU1&#45;&gt;ECU2</title>
<g id="a_edge1"><a xlink:title="A">
<path fill="none" stroke="#7fc506" d="M54.1297,-50.8448C78.8921,-56.3838 116.301,-64.7514 143.905,-70.926"/>
<polygon fill="#7fc506" stroke="#7fc506" points="143.434,-74.4073 153.957,-73.1747 144.963,-67.5761 143.434,-74.4073"/>
</a>
</g>
<text text-anchor="middle" x="104" y="-71" font-family="Times,serif" font-size="10.00" fill="#7fc506">subsystem&#45;1::A</text>
</g>
<!-- ECU4 -->
<g id="node3" class="node"><title>ECU4</title>
<polygon fill="#a9b50f" stroke="#a9b50f" points="208,-36 154,-36 154,-0 208,-0 208,-36"/>
<text text-anchor="middle" x="181" y="-14.3" font-family="Times,serif" font-size="14.00">ECU4</text>
</g>
<!-- ECU1&#45;&gt;ECU4 -->
<g id="edge2" class="edge"><title>ECU1&#45;&gt;ECU4</title>
<g id="a_edge2"><a xlink:title="A">
<path fill="none" stroke="#7fc506" d="M54.1297,-40.3585C78.8921,-35.96 116.301,-29.315 143.905,-24.4117"/>
<polygon fill="#7fc506" stroke="#7fc506" points="144.724,-27.8211 153.957,-22.626 143.499,-20.929 144.724,-27.8211"/>
</a>
</g>
<text text-anchor="middle" x="104" y="-40" font-family="Times,serif" font-size="10.00" fill="#7fc506">subsystem&#45;1::A</text>
</g>
<!-- ECU1&#45;&gt;ECU4 -->
<g id="edge3" class="edge"><title>ECU1&#45;&gt;ECU4</title>
<g id="a_edge3"><a xlink:title="A">
<path fill="none" stroke="#7fc506" d="M45.1352,-26.9167C52.6615,-20.2479 62.0477,-13.4756 72,-10 95.0336,-1.95617 122.466,-4.12268 143.919,-8.21517"/>
<polygon fill="#7fc506" stroke="#7fc506" points="143.416,-11.6863 153.925,-10.3426 144.872,-4.83935 143.416,-11.6863"/>
</a>
</g>
<text text-anchor="middle" x="104" y="-13" font-family="Times,serif" font-size="10.00" fill="#7fc506">subsystem&#45;2::A</text>
</g>
</g>
</svg>
