<?xml version="1.0" encoding="UTF-8" standalone="no"?>
<!DOCTYPE svg PUBLIC "-//W3C//DTD SVG 1.1//EN"
 "http://www.w3.org/Graphics/SVG/1.1/DTD/svg11.dtd">
<!-- Generated by graphviz version 2.36.0 (20140111.2315)
 -->
<!-- Title: %3 Pages: 1 -->
<svg width="714pt" height="245pt"
 viewBox="0.00 0.00 714.00 245.00" xmlns="http://www.w3.org/2000/svg" xmlns:xlink="http://www.w3.org/1999/xlink">
<g id="graph0" class="graph" transform="scale(1 1) rotate(0) translate(4 241)">
<title>%3</title>
<polygon fill="white" stroke="none" points="-4,4 -4,-241 710,-241 710,4 -4,4"/>
<!-- ECM -->
<g id="node1" class="node"><title>ECM</title>
<ellipse fill="#a500d7" stroke="#a500d7" cx="373" cy="-167" rx="30.5947" ry="18"/>
<text text-anchor="middle" x="373" y="-163.3" font-family="Times,serif" font-size="14.00">ECM</text>
</g>
<!-- SCS -->
<g id="node2" class="node"><title>SCS</title>
<polygon fill="#d500eb" stroke="#d500eb" points="706,-231 652,-231 652,-195 706,-195 706,-231"/>
<text text-anchor="middle" x="679" y="-209.3" font-family="Times,serif" font-size="14.00">SCS</text>
</g>
<!-- ECM&#45;&gt;SCS -->
<g id="edge1" class="edge"><title>ECM&#45;&gt;SCS</title>
<path fill="none" stroke="#7003ca" d="M389.924,-182.315C398.665,-189.702 410.123,-197.846 422,-202 496.484,-228.054 590.657,-223.283 641.473,-217.896"/>
<polygon fill="#7003ca" stroke="#7003ca" points="642.092,-221.349 651.636,-216.748 641.306,-214.393 642.092,-221.349"/>
<text text-anchor="middle" x="528" y="-225.8" font-family="Times,serif" font-size="14.00">subsystem&#45;x&#45;secret::AcceActPos</text>
</g>
<!-- ECM&#45;&gt;SCS -->
<g id="edge2" class="edge"><title>ECM&#45;&gt;SCS</title>
<path fill="none" stroke="#7d0424" d="M403.693,-166.859C462.602,-166.899 592.178,-168.678 634,-183 638.674,-184.601 643.314,-186.84 647.73,-189.382"/>
<polygon fill="#7d0424" stroke="#7d0424" points="646.106,-192.497 656.421,-194.917 649.866,-186.593 646.106,-192.497"/>
<text text-anchor="middle" x="528" y="-186.8" font-family="Times,serif" font-size="14.00">subsystem&#45;x&#45;secret::AcceActPosV</text>
</g>
<!-- WIKI -->
<g id="node6" class="node"><title>WIKI</title>
<polygon fill="#1a0138" stroke="#1a0138" points="706,-166 652,-166 652,-130 706,-130 706,-166"/>
<text text-anchor="middle" x="679" y="-144.3" font-family="Times,serif" font-size="14.00">WIKI</text>
</g>
<!-- ECM&#45;&gt;WIKI -->
<g id="edge6" class="edge"><title>ECM&#45;&gt;WIKI</title>
<path fill="none" stroke="#7003ca" d="M397.942,-156.121C405.482,-153.217 413.946,-150.477 422,-149 499.341,-134.819 592.047,-139.761 641.945,-144.167"/>
<polygon fill="#7003ca" stroke="#7003ca" points="641.641,-147.654 651.921,-145.093 642.287,-140.684 641.641,-147.654"/>
<text text-anchor="middle" x="528" y="-152.8" font-family="Times,serif" font-size="14.00">subsystem&#45;xxx&#45;public::AcceActPos</text>
</g>
<!-- BBC -->
<g id="node7" class="node"><title>BBC</title>
<polygon fill="#9000c9" stroke="#9000c9" points="706,-112 652,-112 652,-76 706,-76 706,-112"/>
<text text-anchor="middle" x="679" y="-90.3" font-family="Times,serif" font-size="14.00">BBC</text>
</g>
<!-- ECM&#45;&gt;BBC -->
<g id="edge7" class="edge"><title>ECM&#45;&gt;BBC</title>
<path fill="none" stroke="#7d0424" d="M385.903,-150.6C394.615,-139.951 407.425,-126.827 422,-120 494.289,-86.1403 590.388,-86.8816 641.838,-90.4174"/>
<polygon fill="#7d0424" stroke="#7d0424" points="641.576,-93.9075 651.813,-91.1775 642.108,-86.9277 641.576,-93.9075"/>
<text text-anchor="middle" x="528" y="-123.8" font-family="Times,serif" font-size="14.00">subsystem&#45;xxx&#45;public::AcceActPosV</text>
</g>
<!-- GEAR -->
<g id="node3" class="node"><title>GEAR</title>
<ellipse fill="#c30122" stroke="#c30122" cx="36" cy="-205" rx="35.9954" ry="18"/>
<text text-anchor="middle" x="36" y="-201.3" font-family="Times,serif" font-size="14.00">GEAR</text>
</g>
<!-- GEAR&#45;&gt;ECM -->
<g id="edge3" class="edge"><title>GEAR&#45;&gt;ECM</title>
<path fill="none" stroke="#fa057d" d="M69.9082,-210.994C124.386,-219.539 236.03,-231.176 324,-202 332.584,-199.153 340.919,-194.15 348.168,-188.802"/>
<polygon fill="#fa057d" stroke="#fa057d" points="350.48,-191.436 356.13,-182.474 346.124,-185.956 350.48,-191.436"/>
<text text-anchor="middle" x="207" y="-223.8" font-family="Times,serif" font-size="14.00">subsystem&#45;x&#45;secret::AutocTrCmdGear</text>
</g>
<!-- GEAR&#45;&gt;ECM -->
<g id="edge8" class="edge"><title>GEAR&#45;&gt;ECM</title>
<path fill="none" stroke="#fa057d" d="M62.0372,-192.578C70.6894,-188.837 80.58,-185.157 90,-183 174.648,-163.62 277.127,-163.396 332.262,-165.099"/>
<polygon fill="#fa057d" stroke="#fa057d" points="332.2,-168.599 342.315,-165.448 332.443,-161.603 332.2,-168.599"/>
<text text-anchor="middle" x="207" y="-186.8" font-family="Times,serif" font-size="14.00">subsystem&#45;xxx&#45;public::AutocTrCmdGear</text>
</g>
<!-- BRKR -->
<g id="node4" class="node"><title>BRKR</title>
<ellipse fill="#ea0134" stroke="#ea0134" cx="36" cy="-91" rx="35.9954" ry="18"/>
<text text-anchor="middle" x="36" y="-87.3" font-family="Times,serif" font-size="14.00">BRKR</text>
</g>
<!-- BRKR&#45;&gt;ECM -->
<g id="edge5" class="edge"><title>BRKR&#45;&gt;ECM</title>
<path fill="none" stroke="#9d0382" d="M55.3908,-106.483C65.0647,-113.723 77.4919,-121.683 90,-126 188.633,-160.041 223.042,-118.641 324,-145 329.543,-146.447 335.241,-148.499 340.687,-150.774"/>
<polygon fill="#9d0382" stroke="#9d0382" points="339.576,-154.112 350.131,-155.028 342.451,-147.73 339.576,-154.112"/>
<text text-anchor="middle" x="207" y="-148.8" font-family="Times,serif" font-size="14.00">subsystem&#45;x&#45;secret::BrkPdlPos</text>
</g>
<!-- BRKR&#45;&gt;ECM -->
<g id="edge10" class="edge"><title>BRKR&#45;&gt;ECM</title>
<path fill="none" stroke="#8f00c8" d="M71.7764,-89.4587C138.34,-87.0701 280.972,-84.8242 324,-107 338.408,-114.426 349.952,-128.319 358.106,-140.868"/>
<polygon fill="#8f00c8" stroke="#8f00c8" points="355.257,-142.921 363.436,-149.656 361.242,-139.291 355.257,-142.921"/>
<text text-anchor="middle" x="207" y="-110.8" font-family="Times,serif" font-size="14.00">subsystem&#45;xxx&#45;public::BBB</text>
</g>
<!-- GW -->
<g id="node5" class="node"><title>GW</title>
<polygon fill="#e7009f" stroke="#e7009f" points="400,-90 346,-90 346,-54 400,-54 400,-90"/>
<text text-anchor="middle" x="373" y="-68.3" font-family="Times,serif" font-size="14.00">GW</text>
</g>
<!-- BRKR&#45;&gt;GW -->
<g id="edge4" class="edge"><title>BRKR&#45;&gt;GW</title>
<path fill="none" stroke="#9d0382" d="M64.346,-79.8327C72.4645,-77.0342 81.4695,-74.4246 90,-73 177.148,-58.4462 281.569,-63.915 335.6,-68.409"/>
<polygon fill="#9d0382" stroke="#9d0382" points="335.448,-71.909 345.714,-69.2886 336.055,-64.9353 335.448,-71.909"/>
<text text-anchor="middle" x="207" y="-76.8" font-family="Times,serif" font-size="14.00">subsystem&#45;x&#45;secret::BrkPdlPos</text>
</g>
<!-- TOP -->
<g id="node8" class="node"><title>TOP</title>
<polygon fill="#ed00f5" stroke="#ed00f5" points="400,-36 346,-36 346,-0 400,-0 400,-36"/>
<text text-anchor="middle" x="373" y="-14.3" font-family="Times,serif" font-size="14.00">TOP</text>
</g>
<!-- BRKR&#45;&gt;TOP -->
<g id="edge9" class="edge"><title>BRKR&#45;&gt;TOP</title>
<path fill="none" stroke="#8f00c8" d="M50.9018,-74.0819C60.6532,-63.4963 74.652,-50.6471 90,-44 172.227,-8.38835 280.304,-10.3047 335.748,-14.3641"/>
<polygon fill="#8f00c8" stroke="#8f00c8" points="335.544,-17.8588 345.791,-15.1661 336.102,-10.8811 335.544,-17.8588"/>
<text text-anchor="middle" x="207" y="-47.8" font-family="Times,serif" font-size="14.00">subsystem&#45;xxx&#45;public::BBB</text>
</g>
</g>
</svg>
