<?xml version="1.0" encoding="UTF-8" standalone="no"?>
<!DOCTYPE svg PUBLIC "-//W3C//DTD SVG 1.1//EN"
 "http://www.w3.org/Graphics/SVG/1.1/DTD/svg11.dtd">
<!-- Generated by graphviz version 2.36.0 (20140111.2315)
 -->
<!-- Title: Signals Pages: 1 -->
<svg width="790pt" height="347pt"
 viewBox="0.00 0.00 790.00 347.33" xmlns="http://www.w3.org/2000/svg" xmlns:xlink="http://www.w3.org/1999/xlink">
<g id="graph0" class="graph" transform="scale(1 1) rotate(0) translate(4 343.328)">
<title>Signals</title>
<polygon fill="white" stroke="none" points="-4,4 -4,-343.328 786,-343.328 786,4 -4,4"/>
<!-- ECM -->
<g id="node1" class="node"><title>ECM</title>
<polygon fill="#1bc309" stroke="#1bc309" points="300,-189.328 246,-189.328 246,-153.328 300,-153.328 300,-189.328"/>
<text text-anchor="middle" x="273" y="-167.628" font-family="Times,serif" font-size="14.00">ECM</text>
</g>
<!-- SCS -->
<g id="node2" class="node"><title>SCS</title>
<polygon fill="#5db101" stroke="#5db101" points="540,-189.328 486,-189.328 486,-153.328 540,-153.328 540,-189.328"/>
<text text-anchor="middle" x="513" y="-167.628" font-family="Times,serif" font-size="14.00">SCS</text>
</g>
<!-- ECM&#45;&gt;SCS -->
<g id="edge1" class="edge"><title>ECM&#45;&gt;SCS</title>
<path fill="none" stroke="#0ba808" d="M279.225,-189.513C285.351,-207.079 297.385,-232.684 318,-244.328 376.046,-277.116 409.954,-277.116 468,-244.328 485.072,-234.685 496.259,-215.468 503.079,-199.171"/>
<polygon fill="#0ba808" stroke="#0ba808" points="506.47,-200.104 506.775,-189.513 499.932,-197.602 506.47,-200.104"/>
<text text-anchor="middle" x="393" y="-272.128" font-family="Times,serif" font-size="14.00">auto&#45;s60::AccelActuPos</text>
</g>
<!-- ECM&#45;&gt;SCS -->
<g id="edge2" class="edge"><title>ECM&#45;&gt;SCS</title>
<path fill="none" stroke="#7a9e0f" d="M291.135,-189.411C298.662,-196.08 308.048,-202.853 318,-206.328 380.939,-228.308 405.061,-228.308 468,-206.328 474.687,-203.993 481.118,-200.17 486.901,-195.889"/>
<polygon fill="#7a9e0f" stroke="#7a9e0f" points="489.316,-198.437 494.865,-189.411 484.899,-193.007 489.316,-198.437"/>
<text text-anchor="middle" x="393" y="-226.128" font-family="Times,serif" font-size="14.00">auto&#45;s60::AccelActuPosV</text>
</g>
<!-- ECM&#45;&gt;SCS -->
<g id="edge3" class="edge"><title>ECM&#45;&gt;SCS</title>
<path fill="none" stroke="#72910a" d="M300.38,-171.328C343.113,-171.328 427.551,-171.328 475.848,-171.328"/>
<polygon fill="#72910a" stroke="#72910a" points="475.865,-174.828 485.865,-171.328 475.865,-167.828 475.865,-174.828"/>
<text text-anchor="middle" x="393" y="-175.128" font-family="Times,serif" font-size="14.00">auto&#45;s60::AccelEfctvPos</text>
</g>
<!-- ECM&#45;&gt;SCS -->
<g id="edge14" class="edge"><title>ECM&#45;&gt;SCS</title>
<path fill="none" stroke="#670a02" d="M300.424,-157.871C306.086,-155.574 312.133,-153.541 318,-152.328 383.287,-138.834 402.713,-138.834 468,-152.328 470.658,-152.878 473.354,-153.596 476.034,-154.43"/>
<polygon fill="#670a02" stroke="#670a02" points="474.982,-157.771 485.576,-157.871 477.356,-151.186 474.982,-157.771"/>
<text text-anchor="middle" x="393" y="-156.128" font-family="Times,serif" font-size="14.00">x&#45;secret::AcceActPos</text>
</g>
<!-- ECM&#45;&gt;SCS -->
<g id="edge15" class="edge"><title>ECM&#45;&gt;SCS</title>
<path fill="none" stroke="#07d805" d="M284.579,-153.297C292.269,-142.095 303.799,-128.662 318,-122.328 378.885,-95.1712 407.115,-95.1712 468,-122.328 478.872,-127.178 488.18,-136.189 495.396,-145.173"/>
<polygon fill="#07d805" stroke="#07d805" points="492.653,-147.35 501.421,-153.297 498.275,-143.18 492.653,-147.35"/>
<text text-anchor="middle" x="393" y="-126.128" font-family="Times,serif" font-size="14.00">x&#45;secret::AcceActPosV</text>
</g>
<!-- SCS&#45;&gt;ECM -->
<g id="edge12" class="edge"><title>SCS&#45;&gt;ECM</title>
<path fill="none" stroke="#d7450e" d="M509.344,-152.98C505.024,-130.677 494.151,-93.9612 468,-77.3282 411.748,-41.5492 371.872,-38.0573 318,-77.3282 296.874,-92.728 311.501,-109.851 300,-133.328 298.141,-137.124 295.94,-140.973 293.619,-144.691"/>
<polygon fill="#d7450e" stroke="#d7450e" points="290.691,-142.773 288.087,-153.042 296.527,-146.638 290.691,-142.773"/>
<text text-anchor="middle" x="393" y="-81.1282" font-family="Times,serif" font-size="14.00">auto&#45;s60::AutoHoldSysSts</text>
</g>
<!-- SDM -->
<g id="node3" class="node"><title>SDM</title>
<polygon fill="#f78600" stroke="#f78600" points="781,-322.328 727,-322.328 727,-286.328 781,-286.328 781,-322.328"/>
<text text-anchor="middle" x="754" y="-300.628" font-family="Times,serif" font-size="14.00">SDM</text>
</g>
<!-- SCS&#45;&gt;SDM -->
<g id="edge4" class="edge"><title>SCS&#45;&gt;SDM</title>
<path fill="none" stroke="#12290f" d="M514.056,-189.788C515.264,-219.035 522.38,-275.362 558,-301.328 604.255,-335.047 674.46,-325.539 716.81,-315.192"/>
<polygon fill="#12290f" stroke="#12290f" points="717.882,-318.53 726.688,-312.639 716.131,-311.753 717.882,-318.53"/>
<text text-anchor="middle" x="633" y="-328.128" font-family="Times,serif" font-size="14.00">auto&#45;s60::ABSA</text>
</g>
<!-- SCS&#45;&gt;SDM -->
<g id="edge7" class="edge"><title>SCS&#45;&gt;SDM</title>
<path fill="none" stroke="#beed02" d="M517.548,-189.466C522.653,-210.375 534.208,-244.069 558,-261.328 612.489,-300.856 643.629,-262.634 708,-282.328 711.16,-283.295 714.373,-284.459 717.555,-285.742"/>
<polygon fill="#beed02" stroke="#beed02" points="716.354,-289.037 726.917,-289.862 719.174,-282.63 716.354,-289.037"/>
<text text-anchor="middle" x="633" y="-286.128" font-family="Times,serif" font-size="14.00">auto&#45;s60::ABSAIO</text>
</g>
<!-- TCCM -->
<g id="node4" class="node"><title>TCCM</title>
<polygon fill="#202d06" stroke="#202d06" points="782,-246.328 726,-246.328 726,-210.328 782,-210.328 782,-246.328"/>
<text text-anchor="middle" x="754" y="-224.628" font-family="Times,serif" font-size="14.00">TCCM</text>
</g>
<!-- SCS&#45;&gt;TCCM -->
<g id="edge5" class="edge"><title>SCS&#45;&gt;TCCM</title>
<path fill="none" stroke="#12290f" d="M523.212,-189.461C530.699,-202.044 542.547,-217.84 558,-225.328 608.313,-249.709 674.85,-243.885 715.749,-236.679"/>
<polygon fill="#12290f" stroke="#12290f" points="716.639,-240.073 725.819,-234.785 715.345,-233.194 716.639,-240.073"/>
<text text-anchor="middle" x="633" y="-246.128" font-family="Times,serif" font-size="14.00">auto&#45;s60::ABSA</text>
</g>
<!-- SCS&#45;&gt;TCCM -->
<g id="edge8" class="edge"><title>SCS&#45;&gt;TCCM</title>
<path fill="none" stroke="#beed02" d="M540.231,-181.946C546.011,-183.98 552.154,-185.914 558,-187.328 623.315,-203.131 643.614,-187.089 708,-206.328 710.906,-207.196 713.855,-208.236 716.782,-209.385"/>
<polygon fill="#beed02" stroke="#beed02" points="715.405,-212.603 725.974,-213.348 718.177,-206.175 715.405,-212.603"/>
<text text-anchor="middle" x="633" y="-210.128" font-family="Times,serif" font-size="14.00">auto&#45;s60::ABSAIO</text>
</g>
<!-- TCM -->
<g id="node5" class="node"><title>TCM</title>
<polygon fill="#a92504" stroke="#a92504" points="781,-151.328 727,-151.328 727,-115.328 781,-115.328 781,-151.328"/>
<text text-anchor="middle" x="754" y="-129.628" font-family="Times,serif" font-size="14.00">TCM</text>
</g>
<!-- SCS&#45;&gt;TCM -->
<g id="edge6" class="edge"><title>SCS&#45;&gt;TCM</title>
<path fill="none" stroke="#12290f" d="M540.051,-170.265C577.591,-168.308 648.886,-162.999 708,-149.328 710.974,-148.64 714.023,-147.82 717.064,-146.918"/>
<polygon fill="#12290f" stroke="#12290f" points="718.205,-150.228 726.649,-143.829 716.058,-143.565 718.205,-150.228"/>
<text text-anchor="middle" x="633" y="-172.128" font-family="Times,serif" font-size="14.00">auto&#45;s60::ABSA</text>
</g>
<!-- SCS&#45;&gt;TCM -->
<g id="edge9" class="edge"><title>SCS&#45;&gt;TCM</title>
<path fill="none" stroke="#beed02" d="M527.803,-153.223C535.599,-144.525 546.147,-134.995 558,-130.328 610.312,-109.733 676.8,-117.117 717.067,-124.849"/>
<polygon fill="#beed02" stroke="#beed02" points="716.463,-128.297 726.96,-126.857 717.856,-121.437 716.463,-128.297"/>
<text text-anchor="middle" x="633" y="-134.128" font-family="Times,serif" font-size="14.00">auto&#45;s60::ABSAIO</text>
</g>
<!-- SCS&#45;&gt;TCM -->
<g id="edge13" class="edge"><title>SCS&#45;&gt;TCM</title>
<path fill="none" stroke="#d7450e" d="M519.225,-153.143C525.351,-135.577 537.385,-109.973 558,-98.3282 616.046,-65.5399 644.942,-76.6924 708,-98.3282 714.793,-100.659 721.351,-104.48 727.26,-108.76"/>
<polygon fill="#d7450e" stroke="#d7450e" points="725.402,-111.754 735.407,-115.238 729.758,-106.275 725.402,-111.754"/>
<text text-anchor="middle" x="633" y="-102.128" font-family="Times,serif" font-size="14.00">auto&#45;s60::AutoHoldSysSts</text>
</g>
<!-- IPK -->
<g id="node6" class="node"><title>IPK</title>
<polygon fill="#d42f0f" stroke="#d42f0f" points="781,-56.3282 727,-56.3282 727,-20.3282 781,-20.3282 781,-56.3282"/>
<text text-anchor="middle" x="754" y="-34.6282" font-family="Times,serif" font-size="14.00">IPK</text>
</g>
<!-- SCS&#45;&gt;IPK -->
<g id="edge10" class="edge"><title>SCS&#45;&gt;IPK</title>
<path fill="none" stroke="#162d0b" d="M515.479,-153.183C518.605,-127.733 528.273,-82.0148 558,-59.3282 582.083,-40.9491 666.901,-37.9741 716.385,-37.8686"/>
<polygon fill="#162d0b" stroke="#162d0b" points="716.663,-41.369 726.669,-37.8867 716.676,-34.369 716.663,-41.369"/>
<text text-anchor="middle" x="633" y="-63.1282" font-family="Times,serif" font-size="14.00">auto&#45;s60::AutoHoldMsg</text>
</g>
<!-- SCS&#45;&gt;IPK -->
<g id="edge11" class="edge"><title>SCS&#45;&gt;IPK</title>
<path fill="none" stroke="#d7450e" d="M516.529,-153.14C522.046,-116.421 536.423,-35.5449 558,-19.3282 604.29,15.4623 675.247,-4.42056 717.595,-21.6466"/>
<polygon fill="#d7450e" stroke="#d7450e" points="716.371,-24.929 726.945,-25.5966 719.095,-18.4808 716.371,-24.929"/>
<text text-anchor="middle" x="633" y="-23.1282" font-family="Times,serif" font-size="14.00">auto&#45;s60::AutoHoldSysSts</text>
</g>
<!-- GEAR -->
<g id="node7" class="node"><title>GEAR</title>
<polygon fill="#f7f906" stroke="#f7f906" points="55.5,-200.328 0.5,-200.328 0.5,-164.328 55.5,-164.328 55.5,-200.328"/>
<text text-anchor="middle" x="28" y="-178.628" font-family="Times,serif" font-size="14.00">GEAR</text>
</g>
<!-- GEAR&#45;&gt;ECM -->
<g id="edge16" class="edge"><title>GEAR&#45;&gt;ECM</title>
<path fill="none" stroke="#945c0f" d="M55.9337,-181.109C99.6805,-179.129 186.232,-175.211 235.478,-172.981"/>
<polygon fill="#945c0f" stroke="#945c0f" points="235.853,-176.468 245.684,-172.519 235.536,-169.475 235.853,-176.468"/>
<text text-anchor="middle" x="151" y="-183.128" font-family="Times,serif" font-size="14.00">x&#45;secret::AutocTrCmdGear</text>
</g>
<!-- BRKR -->
<g id="node8" class="node"><title>BRKR</title>
<polygon fill="#ab4202" stroke="#ab4202" points="55.5,-135.328 0.5,-135.328 0.5,-99.3282 55.5,-99.3282 55.5,-135.328"/>
<text text-anchor="middle" x="28" y="-113.628" font-family="Times,serif" font-size="14.00">BRKR</text>
</g>
<!-- BRKR&#45;&gt;ECM -->
<g id="edge18" class="edge"><title>BRKR&#45;&gt;ECM</title>
<path fill="none" stroke="#0dc30f" d="M55.7553,-120.7C94.3029,-125.917 167.483,-137.171 228,-154.328 230.642,-155.077 233.346,-155.922 236.052,-156.824"/>
<polygon fill="#0dc30f" stroke="#0dc30f" points="235.15,-160.218 245.744,-160.275 237.498,-153.623 235.15,-160.218"/>
<text text-anchor="middle" x="151" y="-158.128" font-family="Times,serif" font-size="14.00">x&#45;secret::BrkPdlPos</text>
</g>
<!-- GW -->
<g id="node9" class="node"><title>GW</title>
<polygon fill="#c17d01" stroke="#c17d01" points="300,-124.328 246,-124.328 246,-88.3282 300,-88.3282 300,-124.328"/>
<text text-anchor="middle" x="273" y="-102.628" font-family="Times,serif" font-size="14.00">GW</text>
</g>
<!-- BRKR&#45;&gt;GW -->
<g id="edge17" class="edge"><title>BRKR&#45;&gt;GW</title>
<path fill="none" stroke="#0dc30f" d="M55.9698,-110.354C61.8718,-109.104 68.1147,-107.989 74,-107.328 130.288,-101.005 196.146,-102.408 235.934,-104.21"/>
<polygon fill="#0dc30f" stroke="#0dc30f" points="235.793,-107.707 245.951,-104.697 236.133,-100.715 235.793,-107.707"/>
<text text-anchor="middle" x="151" y="-111.128" font-family="Times,serif" font-size="14.00">x&#45;secret::BrkPdlPos</text>
</g>
</g>
</svg>
