<?xml version="1.0" encoding="UTF-8" standalone="no"?>
<!DOCTYPE svg PUBLIC "-//W3C//DTD SVG 1.1//EN"
 "http://www.w3.org/Graphics/SVG/1.1/DTD/svg11.dtd">
<!-- Generated by graphviz version 2.36.0 (20140111.2315)
 -->
<!-- Title: Signals Pages: 1 -->
<svg width="726pt" height="578pt"
 viewBox="0.00 0.00 726.00 577.86" xmlns="http://www.w3.org/2000/svg" xmlns:xlink="http://www.w3.org/1999/xlink">
<g id="graph0" class="graph" transform="scale(1 1) rotate(0) translate(4 573.857)">
<title>Signals</title>
<polygon fill="white" stroke="none" points="-4,4 -4,-573.857 722,-573.857 722,4 -4,4"/>
<!-- ECM -->
<g id="node1" class="node"><title>ECM</title>
<polygon fill="#1bc309" stroke="#1bc309" points="256,-315.857 202,-315.857 202,-279.857 256,-279.857 256,-315.857"/>
<text text-anchor="middle" x="229" y="-294.157" font-family="Times,serif" font-size="14.00">ECM</text>
</g>
<!-- SCS -->
<g id="node2" class="node"><title>SCS</title>
<polygon fill="#5db101" stroke="#5db101" points="488,-307.857 434,-307.857 434,-271.857 488,-271.857 488,-307.857"/>
<text text-anchor="middle" x="461" y="-286.157" font-family="Times,serif" font-size="14.00">SCS</text>
</g>
<!-- ECM&#45;&gt;SCS -->
<g id="edge1" class="edge"><title>ECM&#45;&gt;SCS</title>
<g id="a_edge1"><a xlink:title="Accelerator Actual &#160;Position">
<path fill="none" stroke="#aa1003" d="M256.018,-300.932C292.112,-304.628 359.336,-309.445 416,-301.857 418.541,-301.517 421.143,-301.071 423.749,-300.551"/>
<polygon fill="#aa1003" stroke="#aa1003" points="424.754,-303.911 433.71,-298.249 423.179,-297.091 424.754,-303.911"/>
</a>
</g>
<text text-anchor="middle" x="345" y="-308.857" font-family="Times,serif" font-size="10.00" fill="#aa1003">x&#45;secret::AcceActPos</text>
</g>
<!-- ECM&#45;&gt;SCS -->
<g id="edge2" class="edge"><title>ECM&#45;&gt;SCS</title>
<g id="a_edge2"><a xlink:title="Accelerator Actual &#160;Position Validity">
<path fill="none" stroke="#1baa0a" d="M256.392,-291.559C262.161,-290.435 268.26,-289.438 274,-288.857 325.611,-283.633 385.69,-285.359 423.287,-287.369"/>
<polygon fill="#1baa0a" stroke="#1baa0a" points="423.55,-290.89 433.734,-287.967 423.95,-283.902 423.55,-290.89"/>
</a>
</g>
<text text-anchor="middle" x="345" y="-291.857" font-family="Times,serif" font-size="10.00" fill="#1baa0a">x&#45;secret::AcceActPosV</text>
</g>
<!-- ECM&#45;&gt;SCS -->
<g id="edge6" class="edge"><title>ECM&#45;&gt;SCS</title>
<g id="a_edge6"><a xlink:title="Accelerator Actual Position">
<path fill="none" stroke="#87af03" d="M253.008,-279.802C259.45,-275.729 266.698,-271.983 274,-269.857 334.594,-252.212 354.319,-256.496 416,-269.857 418.676,-270.436 421.384,-271.193 424.073,-272.072"/>
<polygon fill="#87af03" stroke="#87af03" points="423.043,-275.425 433.635,-275.695 425.523,-268.879 423.043,-275.425"/>
</a>
</g>
<text text-anchor="middle" x="345" y="-272.857" font-family="Times,serif" font-size="10.00" fill="#87af03">auto&#45;s60::AccelActuPos</text>
</g>
<!-- ECM&#45;&gt;SCS -->
<g id="edge7" class="edge"><title>ECM&#45;&gt;SCS</title>
<g id="a_edge7"><a xlink:title="Accelerator Actual Position Validity">
<path fill="none" stroke="#d0a300" d="M239.178,-279.653C246.648,-267.035 258.489,-251.226 274,-243.857 331.004,-216.773 357.965,-219.059 416,-243.857 425.908,-248.091 434.652,-255.772 441.68,-263.661"/>
<polygon fill="#d0a300" stroke="#d0a300" points="439.065,-265.992 448.117,-271.498 444.475,-261.549 439.065,-265.992"/>
</a>
</g>
<text text-anchor="middle" x="345" y="-246.857" font-family="Times,serif" font-size="10.00" fill="#d0a300">auto&#45;s60::AccelActuPosV</text>
</g>
<!-- ECM&#45;&gt;SCS -->
<g id="edge8" class="edge"><title>ECM&#45;&gt;SCS</title>
<g id="a_edge8"><a xlink:title="Accelerator Effective Position">
<path fill="none" stroke="#ca8305" d="M233.283,-279.533C238.134,-258.523 249.444,-225.033 274,-209.857 327.686,-176.677 361.675,-177.736 416,-209.857 434.996,-221.088 446.343,-243.764 452.744,-262.114"/>
<polygon fill="#ca8305" stroke="#ca8305" points="449.445,-263.292 455.808,-271.764 456.117,-261.173 449.445,-263.292"/>
</a>
</g>
<text text-anchor="middle" x="345" y="-212.857" font-family="Times,serif" font-size="10.00" fill="#ca8305">auto&#45;s60::AccelEfctvPos</text>
</g>
<!-- ECM&#45;&gt;SCS -->
<g id="edge21" class="edge"><title>ECM&#45;&gt;SCS</title>
<g id="a_edge21"><a xlink:title="Automatic Transmission Commanded Gear">
<path fill="none" stroke="#8d0f0c" d="M240.494,-316.246C248.148,-327.673 259.67,-341.379 274,-347.857 331.508,-373.854 359.474,-375.926 416,-347.857 429.261,-341.272 439.598,-328.569 446.912,-316.726"/>
<polygon fill="#8d0f0c" stroke="#8d0f0c" points="450.001,-318.374 451.913,-307.953 443.92,-314.907 450.001,-318.374"/>
</a>
</g>
<text text-anchor="middle" x="345" y="-370.857" font-family="Times,serif" font-size="10.00" fill="#8d0f0c">auto&#45;s60::AutocTrCmddGear</text>
</g>
<!-- SCS&#45;&gt;ECM -->
<g id="edge19" class="edge"><title>SCS&#45;&gt;ECM</title>
<g id="a_edge19"><a xlink:title="Auto Hold System Status">
<path fill="none" stroke="#8e8805" d="M439.943,-307.873C432.877,-313.11 424.552,-318.147 416,-320.857 355.837,-339.922 335.29,-335.91 274,-320.857 271.175,-320.163 268.33,-319.252 265.519,-318.194"/>
<polygon fill="#8e8805" stroke="#8e8805" points="266.742,-314.909 256.176,-314.128 263.949,-321.328 266.742,-314.909"/>
</a>
</g>
<text text-anchor="middle" x="345" y="-335.857" font-family="Times,serif" font-size="10.00" fill="#8e8805">auto&#45;s60::AutoHoldSysSts</text>
</g>
<!-- SDM -->
<g id="node6" class="node"><title>SDM</title>
<polygon fill="#f78600" stroke="#f78600" points="706,-511.857 652,-511.857 652,-475.857 706,-475.857 706,-511.857"/>
<text text-anchor="middle" x="679" y="-490.157" font-family="Times,serif" font-size="14.00">SDM</text>
</g>
<!-- SCS&#45;&gt;SDM -->
<g id="edge9" class="edge"><title>SCS&#45;&gt;SDM</title>
<g id="a_edge9"><a xlink:title="Antilock Brake System Active">
<path fill="none" stroke="#507007" d="M462.309,-307.916C463.622,-360.226 470.473,-510.037 506,-539.857 545.489,-573.002 573.462,-557.236 622,-539.857 633.91,-535.592 645.103,-527.582 654.305,-519.425"/>
<polygon fill="#507007" stroke="#507007" points="656.975,-521.719 661.847,-512.311 652.171,-516.627 656.975,-521.719"/>
</a>
</g>
<text text-anchor="middle" x="564" y="-561.857" font-family="Times,serif" font-size="10.00" fill="#507007">auto&#45;s60::ABSA</text>
</g>
<!-- SCS&#45;&gt;SDM -->
<g id="edge12" class="edge"><title>SCS&#45;&gt;SDM</title>
<g id="a_edge12"><a xlink:title="Antilock Brake System Failed">
<path fill="none" stroke="#196204" d="M462.867,-308.157C465.536,-355.646 475.398,-480.86 506,-505.857 544.093,-536.973 604.147,-523.201 642.276,-509.345"/>
<polygon fill="#196204" stroke="#196204" points="643.844,-512.493 651.941,-505.66 641.35,-505.952 643.844,-512.493"/>
</a>
</g>
<text text-anchor="middle" x="564" y="-526.857" font-family="Times,serif" font-size="10.00" fill="#196204">auto&#45;s60::ABSF</text>
</g>
<!-- SCS&#45;&gt;SDM -->
<g id="edge16" class="edge"><title>SCS&#45;&gt;SDM</title>
<g id="a_edge16"><a xlink:title="Antilock Brake System Active Indication On">
<path fill="none" stroke="#d73307" d="M463.816,-308.12C468.353,-349.797 481.603,-450.006 506,-471.857 515.903,-480.726 594.03,-487.83 641.516,-491.382"/>
<polygon fill="#d73307" stroke="#d73307" points="641.494,-494.89 651.722,-492.126 642.003,-487.908 641.494,-494.89"/>
</a>
</g>
<text text-anchor="middle" x="564" y="-491.857" font-family="Times,serif" font-size="10.00" fill="#d73307">auto&#45;s60::ABSAIO</text>
</g>
<!-- SCS&#45;&gt;SDM -->
<g id="edge26" class="edge"><title>SCS&#45;&gt;SDM</title>
<g id="a_edge26"><a xlink:title="Break Fluid Level Low">
<path fill="none" stroke="#ac820d" d="M461.709,-308.017C462.264,-339.494 468.263,-404.054 506,-437.857 545.026,-472.814 573.13,-439.967 622,-458.857 629.669,-461.821 637.437,-465.872 644.645,-470.167"/>
<polygon fill="#ac820d" stroke="#ac820d" points="643.097,-473.327 653.428,-475.675 646.816,-467.397 643.097,-473.327"/>
</a>
</g>
<text text-anchor="middle" x="564" y="-461.857" font-family="Times,serif" font-size="10.00" fill="#ac820d">auto&#45;s60::BrkFludLvlLow</text>
</g>
<!-- SCS&#45;&gt;SDM -->
<g id="edge29" class="edge"><title>SCS&#45;&gt;SDM</title>
<g id="a_edge29"><a xlink:title="Brake Fluid Level Low Validity">
<path fill="none" stroke="#f07c09" d="M463.604,-308.027C466.881,-333.567 476.731,-379.662 506,-403.857 546.383,-437.239 576.902,-398.187 622,-424.857 639.046,-434.937 653.076,-452.256 662.83,-467.02"/>
<polygon fill="#f07c09" stroke="#f07c09" points="660.058,-469.187 668.34,-475.795 665.987,-465.465 660.058,-469.187"/>
</a>
</g>
<text text-anchor="middle" x="564" y="-427.857" font-family="Times,serif" font-size="10.00" fill="#f07c09">auto&#45;s60::BrkFludLvlLowV</text>
</g>
<!-- TCCM -->
<g id="node7" class="node"><title>TCCM</title>
<polygon fill="#202d06" stroke="#202d06" points="707,-392.857 651,-392.857 651,-356.857 707,-356.857 707,-392.857"/>
<text text-anchor="middle" x="679" y="-371.157" font-family="Times,serif" font-size="14.00">TCCM</text>
</g>
<!-- SCS&#45;&gt;TCCM -->
<g id="edge10" class="edge"><title>SCS&#45;&gt;TCCM</title>
<g id="a_edge10"><a xlink:title="Antilock Brake System Active">
<path fill="none" stroke="#507007" d="M466.369,-308.175C471.999,-327.283 483.818,-356.302 506,-369.857 546.893,-394.845 604.075,-390.479 641.074,-383.736"/>
<polygon fill="#507007" stroke="#507007" points="641.809,-387.159 650.945,-381.794 640.457,-380.291 641.809,-387.159"/>
</a>
</g>
<text text-anchor="middle" x="564" y="-391.857" font-family="Times,serif" font-size="10.00" fill="#507007">auto&#45;s60::ABSA</text>
</g>
<!-- SCS&#45;&gt;TCCM -->
<g id="edge13" class="edge"><title>SCS&#45;&gt;TCCM</title>
<g id="a_edge13"><a xlink:title="Antilock Brake System Failed">
<path fill="none" stroke="#196204" d="M484.901,-308.018C491.458,-312.646 498.79,-317.308 506,-320.857 554.433,-344.693 570.526,-340.597 622,-356.857 628.199,-358.815 634.777,-360.912 641.163,-362.958"/>
<polygon fill="#196204" stroke="#196204" points="640.367,-366.379 650.958,-366.104 642.508,-359.714 640.367,-366.379"/>
</a>
</g>
<text text-anchor="middle" x="564" y="-359.857" font-family="Times,serif" font-size="10.00" fill="#196204">auto&#45;s60::ABSF</text>
</g>
<!-- TCM -->
<g id="node8" class="node"><title>TCM</title>
<polygon fill="#a92504" stroke="#a92504" points="706,-307.857 652,-307.857 652,-271.857 706,-271.857 706,-307.857"/>
<text text-anchor="middle" x="679" y="-286.157" font-family="Times,serif" font-size="14.00">TCM</text>
</g>
<!-- SCS&#45;&gt;TCM -->
<g id="edge11" class="edge"><title>SCS&#45;&gt;TCM</title>
<g id="a_edge11"><a xlink:title="Antilock Brake System Active">
<path fill="none" stroke="#507007" d="M488.29,-298.249C494.066,-299.748 500.193,-301.079 506,-301.857 557.099,-308.7 570.731,-307.288 622,-301.857 628.489,-301.169 635.331,-300.046 641.918,-298.755"/>
<polygon fill="#507007" stroke="#507007" points="642.915,-302.122 651.974,-296.627 641.466,-295.273 642.915,-302.122"/>
</a>
</g>
<text text-anchor="middle" x="564" y="-308.857" font-family="Times,serif" font-size="10.00" fill="#507007">auto&#45;s60::ABSA</text>
</g>
<!-- SCS&#45;&gt;TCM -->
<g id="edge14" class="edge"><title>SCS&#45;&gt;TCM</title>
<g id="a_edge14"><a xlink:title="Antilock Brake System Failed">
<path fill="none" stroke="#196204" d="M488.057,-289.167C493.956,-289.038 500.193,-288.923 506,-288.857 557.552,-288.271 570.446,-288.397 622,-288.857 628.381,-288.914 635.17,-289.007 641.74,-289.115"/>
<polygon fill="#196204" stroke="#196204" points="641.731,-292.615 651.791,-289.292 641.854,-285.616 641.731,-292.615"/>
</a>
</g>
<text text-anchor="middle" x="564" y="-291.857" font-family="Times,serif" font-size="10.00" fill="#196204">auto&#45;s60::ABSF</text>
</g>
<!-- SCS&#45;&gt;TCM -->
<g id="edge20" class="edge"><title>SCS&#45;&gt;TCM</title>
<g id="a_edge20"><a xlink:title="Auto Hold System Status">
<path fill="none" stroke="#8e8805" d="M488.063,-277.981C493.853,-275.857 500.043,-273.968 506,-272.857 556.682,-263.406 571.003,-265.287 622,-272.857 628.529,-273.826 635.352,-275.398 641.897,-277.205"/>
<polygon fill="#8e8805" stroke="#8e8805" points="641.29,-280.676 651.874,-280.184 643.293,-273.969 641.29,-280.676"/>
</a>
</g>
<text text-anchor="middle" x="564" y="-275.857" font-family="Times,serif" font-size="10.00" fill="#8e8805">auto&#45;s60::AutoHoldSysSts</text>
</g>
<!-- IPK -->
<g id="node9" class="node"><title>IPK</title>
<polygon fill="#d42f0f" stroke="#d42f0f" points="706,-171.857 652,-171.857 652,-135.857 706,-135.857 706,-171.857"/>
<text text-anchor="middle" x="679" y="-150.157" font-family="Times,serif" font-size="14.00">IPK</text>
</g>
<!-- SCS&#45;&gt;IPK -->
<g id="edge15" class="edge"><title>SCS&#45;&gt;IPK</title>
<g id="a_edge15"><a xlink:title="Antilock Brake System Active Indication On">
<path fill="none" stroke="#d73307" d="M480.75,-271.538C488.223,-264.822 497.145,-257.494 506,-251.857 553.661,-221.517 573.968,-229.607 622,-199.857 631.909,-193.719 641.98,-186 650.798,-178.647"/>
<polygon fill="#d73307" stroke="#d73307" points="653.181,-181.215 658.503,-172.054 648.629,-175.896 653.181,-181.215"/>
</a>
</g>
<text text-anchor="middle" x="564" y="-254.857" font-family="Times,serif" font-size="10.00" fill="#d73307">auto&#45;s60::ABSAIO</text>
</g>
<!-- SCS&#45;&gt;IPK -->
<g id="edge17" class="edge"><title>SCS&#45;&gt;IPK</title>
<g id="a_edge17"><a xlink:title="Auto Hold Message">
<path fill="none" stroke="#4ea005" d="M464.436,-271.819C468.601,-248.413 479.393,-208.071 506,-186.857 546.967,-154.195 570.6,-176.014 622,-165.857 628.401,-164.592 635.201,-163.187 641.773,-161.797"/>
<polygon fill="#4ea005" stroke="#4ea005" points="642.779,-165.161 651.825,-159.647 641.315,-158.316 642.779,-165.161"/>
</a>
</g>
<text text-anchor="middle" x="564" y="-189.857" font-family="Times,serif" font-size="10.00" fill="#4ea005">auto&#45;s60::AutoHoldMsg</text>
</g>
<!-- SCS&#45;&gt;IPK -->
<g id="edge18" class="edge"><title>SCS&#45;&gt;IPK</title>
<g id="a_edge18"><a xlink:title="Auto Hold System Status">
<path fill="none" stroke="#8e8805" d="M461.632,-271.85C462.11,-241.441 468.052,-180.527 506,-152.857 545.258,-124.232 604.091,-132.397 641.76,-142.15"/>
<polygon fill="#8e8805" stroke="#8e8805" points="641.219,-145.631 651.789,-144.913 643.078,-138.882 641.219,-145.631"/>
</a>
</g>
<text text-anchor="middle" x="564" y="-155.857" font-family="Times,serif" font-size="10.00" fill="#8e8805">auto&#45;s60::AutoHoldSysSts</text>
</g>
<!-- SCS&#45;&gt;IPK -->
<g id="edge24" class="edge"><title>SCS&#45;&gt;IPK</title>
<g id="a_edge24"><a xlink:title="Break Fluid Level Low">
<path fill="none" stroke="#ac820d" d="M463.917,-271.585C468.545,-231.444 481.773,-137.639 506,-118.857 546.745,-87.2687 572.442,-104.644 622,-118.857 630.555,-121.31 639.07,-125.494 646.784,-130.133"/>
<polygon fill="#ac820d" stroke="#ac820d" points="645.125,-133.228 655.425,-135.711 648.922,-127.347 645.125,-133.228"/>
</a>
</g>
<text text-anchor="middle" x="564" y="-121.857" font-family="Times,serif" font-size="10.00" fill="#ac820d">auto&#45;s60::BrkFludLvlLow</text>
</g>
<!-- SCS&#45;&gt;IPK -->
<g id="edge27" class="edge"><title>SCS&#45;&gt;IPK</title>
<g id="a_edge27"><a xlink:title="Brake Fluid Level Low Validity">
<path fill="none" stroke="#f07c09" d="M463.117,-271.66C466.321,-226.276 477.228,-110.061 506,-86.8569 546.131,-54.4923 575.296,-65.0236 622,-86.8569 639.742,-95.1509 653.838,-112.136 663.45,-126.929"/>
<polygon fill="#f07c09" stroke="#f07c09" points="660.646,-129.052 668.848,-135.758 666.618,-125.401 660.646,-129.052"/>
</a>
</g>
<text text-anchor="middle" x="564" y="-89.8569" font-family="Times,serif" font-size="10.00" fill="#f07c09">auto&#45;s60::BrkFludLvlLowV</text>
</g>
<!-- Telematics -->
<g id="node11" class="node"><title>Telematics</title>
<polygon fill="#83f80d" stroke="#83f80d" points="717.5,-52.8569 640.5,-52.8569 640.5,-16.8569 717.5,-16.8569 717.5,-52.8569"/>
<text text-anchor="middle" x="679" y="-31.1569" font-family="Times,serif" font-size="14.00">Telematics</text>
</g>
<!-- SCS&#45;&gt;Telematics -->
<g id="edge25" class="edge"><title>SCS&#45;&gt;Telematics</title>
<g id="a_edge25"><a xlink:title="Break Fluid Level Low">
<path fill="none" stroke="#ac820d" d="M462.635,-271.741C464.802,-221.399 473.67,-81.5705 506,-51.8569 523.576,-35.7036 585.744,-33.0625 630.286,-33.3773"/>
<polygon fill="#ac820d" stroke="#ac820d" points="630.302,-36.8776 640.344,-33.4996 630.388,-29.8782 630.302,-36.8776"/>
</a>
</g>
<text text-anchor="middle" x="564" y="-54.8569" font-family="Times,serif" font-size="10.00" fill="#ac820d">auto&#45;s60::BrkFludLvlLow</text>
</g>
<!-- SCS&#45;&gt;Telematics -->
<g id="edge28" class="edge"><title>SCS&#45;&gt;Telematics</title>
<g id="a_edge28"><a xlink:title="Brake Fluid Level Low Validity">
<path fill="none" stroke="#f07c09" d="M462.042,-271.493C462.597,-215.96 467.517,-51.5955 506,-18.8569 539.969,10.0417 592.514,-0.033389 630.59,-13.5541"/>
<polygon fill="#f07c09" stroke="#f07c09" points="629.835,-17.0086 640.427,-17.236 632.289,-10.4527 629.835,-17.0086"/>
</a>
</g>
<text text-anchor="middle" x="564" y="-21.8569" font-family="Times,serif" font-size="10.00" fill="#f07c09">auto&#45;s60::BrkFludLvlLowV</text>
</g>
<!-- GEAR -->
<g id="node3" class="node"><title>GEAR</title>
<polygon fill="#f7f906" stroke="#f7f906" points="54,-315.857 0,-315.857 0,-279.857 54,-279.857 54,-315.857"/>
<text text-anchor="middle" x="27" y="-294.157" font-family="Times,serif" font-size="14.00">GEAR</text>
</g>
<!-- GEAR&#45;&gt;ECM -->
<g id="edge3" class="edge"><title>GEAR&#45;&gt;ECM</title>
<g id="a_edge3"><a xlink:title="Automatic Transimission Commanded Gear">
<path fill="none" stroke="#a5d008" d="M54.1465,-297.857C89.3321,-297.857 152.079,-297.857 191.789,-297.857"/>
<polygon fill="#a5d008" stroke="#a5d008" points="191.847,-301.357 201.847,-297.857 191.847,-294.357 191.847,-301.357"/>
</a>
</g>
<text text-anchor="middle" x="128" y="-300.857" font-family="Times,serif" font-size="10.00" fill="#a5d008">x&#45;secret::AutocTrCmdGear</text>
</g>
<!-- BRKR -->
<g id="node4" class="node"><title>BRKR</title>
<polygon fill="#ab4202" stroke="#ab4202" points="54,-378.857 0,-378.857 0,-342.857 54,-342.857 54,-378.857"/>
<text text-anchor="middle" x="27" y="-357.157" font-family="Times,serif" font-size="14.00">BRKR</text>
</g>
<!-- BRKR&#45;&gt;ECM -->
<g id="edge5" class="edge"><title>BRKR&#45;&gt;ECM</title>
<g id="a_edge5"><a xlink:title="Brake Pedal Position">
<path fill="none" stroke="#81030e" d="M54.0215,-353.111C85.0517,-343.814 138.446,-327.626 184,-312.857 186.735,-311.97 189.561,-311.04 192.399,-310.095"/>
<polygon fill="#81030e" stroke="#81030e" points="193.623,-313.376 201.985,-306.87 191.391,-306.742 193.623,-313.376"/>
</a>
</g>
<text text-anchor="middle" x="128" y="-349.857" font-family="Times,serif" font-size="10.00" fill="#81030e">x&#45;secret::BrkPdlPos</text>
</g>
<!-- GW -->
<g id="node5" class="node"><title>GW</title>
<polygon fill="#c17d01" stroke="#c17d01" points="256,-443.857 202,-443.857 202,-407.857 256,-407.857 256,-443.857"/>
<text text-anchor="middle" x="229" y="-422.157" font-family="Times,serif" font-size="14.00">GW</text>
</g>
<!-- BRKR&#45;&gt;GW -->
<g id="edge4" class="edge"><title>BRKR&#45;&gt;GW</title>
<g id="a_edge4"><a xlink:title="Brake Pedal Position">
<path fill="none" stroke="#81030e" d="M54.1465,-369.355C89.4818,-380.838 152.614,-401.356 192.295,-414.253"/>
<polygon fill="#81030e" stroke="#81030e" points="191.255,-417.595 201.847,-417.357 193.419,-410.938 191.255,-417.595"/>
</a>
</g>
<text text-anchor="middle" x="128" y="-412.857" font-family="Times,serif" font-size="10.00" fill="#81030e">x&#45;secret::BrkPdlPos</text>
</g>
<!-- GW&#45;&gt;SCS -->
<g id="edge30" class="edge"><title>GW&#45;&gt;SCS</title>
<g id="a_edge30"><a xlink:title="Brake Pedel Position">
<path fill="none" stroke="#077205" d="M256.186,-426.638C295.238,-426.433 369.151,-420.59 416,-382.857 436.203,-366.585 447.645,-338.843 453.763,-317.883"/>
<polygon fill="#077205" stroke="#077205" points="457.145,-318.784 456.354,-308.219 450.384,-316.971 457.145,-318.784"/>
</a>
</g>
<text text-anchor="middle" x="345" y="-428.857" font-family="Times,serif" font-size="10.00" fill="#077205">auto&#45;s60::BrkPdlPos</text>
</g>
<!-- GW&#45;&gt;SCS -->
<g id="edge31" class="edge"><title>GW&#45;&gt;SCS</title>
<g id="a_edge31"><a xlink:title="Brake Pedel Position Validity">
<path fill="none" stroke="#aa2f02" d="M256.128,-437.236C295.106,-452.264 368.924,-472.974 416,-437.857 452.934,-410.305 460.106,-353.025 460.833,-318.362"/>
<polygon fill="#aa2f02" stroke="#aa2f02" points="464.334,-317.982 460.871,-307.969 457.334,-317.955 464.334,-317.982"/>
</a>
</g>
<text text-anchor="middle" x="345" y="-459.857" font-family="Times,serif" font-size="10.00" fill="#aa2f02">auto&#45;s60::BrkPdlPosV</text>
</g>
<!-- TCU -->
<g id="node10" class="node"><title>TCU</title>
<polygon fill="#3cdb00" stroke="#3cdb00" points="256,-154.857 202,-154.857 202,-118.857 256,-118.857 256,-154.857"/>
<text text-anchor="middle" x="229" y="-133.157" font-family="Times,serif" font-size="14.00">TCU</text>
</g>
<!-- TCU&#45;&gt;SCS -->
<g id="edge22" class="edge"><title>TCU&#45;&gt;SCS</title>
<g id="a_edge22"><a xlink:title="Automatic Transmission Gear Shift Direction">
<path fill="none" stroke="#463004" d="M256.264,-124.44C295.416,-107.96 369.458,-84.8806 416,-120.857 438.16,-137.986 451.253,-218.424 456.823,-261.862"/>
<polygon fill="#463004" stroke="#463004" points="453.35,-262.3 458.048,-271.796 460.298,-261.443 453.35,-262.3"/>
</a>
</g>
<text text-anchor="middle" x="345" y="-123.857" font-family="Times,serif" font-size="10.00" fill="#463004">auto&#45;s60::AutocTrGearShftDircn</text>
</g>
<!-- TCU&#45;&gt;SCS -->
<g id="edge23" class="edge"><title>TCU&#45;&gt;SCS</title>
<g id="a_edge23"><a xlink:title="Automatic Transmission Gear Shift Direction Failure">
<path fill="none" stroke="#29300a" d="M256.173,-134.104C295.544,-131.455 370.255,-132.427 416,-170.857 442.949,-193.496 453.398,-234.236 457.446,-261.66"/>
<polygon fill="#29300a" stroke="#29300a" points="454.003,-262.328 458.743,-271.803 460.946,-261.44 454.003,-262.328"/>
</a>
</g>
<text text-anchor="middle" x="345" y="-173.857" font-family="Times,serif" font-size="10.00" fill="#29300a">auto&#45;s60::AutocTrGearShftDircnF</text>
</g>
</g>
</svg>
