<?xml version="1.0" encoding="UTF-8" standalone="no"?>
<!DOCTYPE svg PUBLIC "-//W3C//DTD SVG 1.1//EN"
 "http://www.w3.org/Graphics/SVG/1.1/DTD/svg11.dtd">
<!-- Generated by graphviz version 2.36.0 (20140111.2315)
 -->
<!-- Title: %3 Pages: 1 -->
<svg width="1235pt" height="220pt"
 viewBox="0.00 0.00 1234.50 220.00" xmlns="http://www.w3.org/2000/svg" xmlns:xlink="http://www.w3.org/1999/xlink">
<g id="graph0" class="graph" transform="scale(1 1) rotate(0) translate(4 216)">
<title>%3</title>
<polygon fill="white" stroke="none" points="-4,4 -4,-216 1230.5,-216 1230.5,4 -4,4"/>
<!-- ECM -->
<g id="node1" class="node"><title>ECM</title>
<ellipse fill="#a500d7" stroke="#a500d7" cx="373.503" cy="-106" rx="30.3206" ry="18"/>
<text text-anchor="middle" x="373.503" y="-102.3" font-family="Times,serif" font-size="14.00">ECM</text>
</g>
<!-- SCS -->
<g id="node2" class="node"><title>SCS</title>
<polygon fill="#d500eb" stroke="#d500eb" points="187.503,-36 133.503,-36 133.503,-0 187.503,-0 187.503,-36"/>
<text text-anchor="middle" x="160.503" y="-14.3" font-family="Times,serif" font-size="14.00">SCS</text>
</g>
<!-- ECM&#45;&gt;SCS -->
<g id="edge1" class="edge"><title>ECM&#45;&gt;SCS</title>
<path fill="none" stroke="#7003ca" d="M343.398,-103.907C268.124,-100.865 76.3959,-91.1008 57.5032,-70 35.4211,-45.3371 85.2175,-31.2212 123.004,-24.3402"/>
<polygon fill="#7003ca" stroke="#7003ca" points="124.004,-27.7202 133.273,-22.5884 122.827,-20.8198 124.004,-27.7202"/>
<text text-anchor="middle" x="150.003" y="-58.3" font-family="Times,serif" font-size="14.00">subsystem&#45;x&#45;secret::AcceActPos</text>
</g>
<!-- ECM&#45;&gt;SCS -->
<g id="edge2" class="edge"><title>ECM&#45;&gt;SCS</title>
<path fill="none" stroke="#7d0424" d="M345.111,-99.4142C321.695,-94.0525 288.121,-84.5894 261.503,-70 251.822,-64.6938 251.905,-59.7859 242.503,-54 228.472,-45.3654 211.933,-37.8606 197.398,-32.0386"/>
<polygon fill="#7d0424" stroke="#7d0424" points="198.299,-28.6344 187.71,-28.2837 195.769,-35.1612 198.299,-28.6344"/>
<text text-anchor="middle" x="359.003" y="-58.3" font-family="Times,serif" font-size="14.00">subsystem&#45;x&#45;secret::AcceActPosV</text>
</g>
<!-- WIKI -->
<g id="node6" class="node"><title>WIKI</title>
<polygon fill="#1a0138" stroke="#1a0138" points="509.503,-36 455.503,-36 455.503,-0 509.503,-0 509.503,-36"/>
<text text-anchor="middle" x="482.503" y="-14.3" font-family="Times,serif" font-size="14.00">WIKI</text>
</g>
<!-- ECM&#45;&gt;WIKI -->
<g id="edge6" class="edge"><title>ECM&#45;&gt;WIKI</title>
<path fill="none" stroke="#7003ca" d="M402.073,-99.439C420.744,-94.5037 444.537,-85.5751 460.503,-70 467.25,-63.418 472.052,-54.4267 475.411,-45.8257"/>
<polygon fill="#7003ca" stroke="#7003ca" points="478.821,-46.6703 478.721,-36.076 472.192,-44.42 478.821,-46.6703"/>
<text text-anchor="middle" x="573.003" y="-58.3" font-family="Times,serif" font-size="14.00">subsystem&#45;xxx&#45;public::AcceActPos</text>
</g>
<!-- BBC -->
<g id="node7" class="node"><title>BBC</title>
<polygon fill="#9000c9" stroke="#9000c9" points="733.503,-36 679.503,-36 679.503,-0 733.503,-0 733.503,-36"/>
<text text-anchor="middle" x="706.503" y="-14.3" font-family="Times,serif" font-size="14.00">BBC</text>
</g>
<!-- ECM&#45;&gt;BBC -->
<g id="edge7" class="edge"><title>ECM&#45;&gt;BBC</title>
<path fill="none" stroke="#7d0424" d="M403.908,-104.92C471.764,-104.206 633.077,-99.374 677.503,-70 686.331,-64.163 692.771,-54.6624 697.306,-45.4339"/>
<polygon fill="#7d0424" stroke="#7d0424" points="700.595,-46.6471 701.363,-36.0802 694.173,-43.8616 700.595,-46.6471"/>
<text text-anchor="middle" x="798.003" y="-58.3" font-family="Times,serif" font-size="14.00">subsystem&#45;xxx&#45;public::AcceActPosV</text>
</g>
<!-- GEAR -->
<g id="node3" class="node"><title>GEAR</title>
<ellipse fill="#c30122" stroke="#c30122" cx="125.503" cy="-194" rx="35.6194" ry="18"/>
<text text-anchor="middle" x="125.503" y="-190.3" font-family="Times,serif" font-size="14.00">GEAR</text>
</g>
<!-- GEAR&#45;&gt;ECM -->
<g id="edge3" class="edge"><title>GEAR&#45;&gt;ECM</title>
<path fill="none" stroke="#fa057d" d="M90.8543,-189.837C46.8724,-184.548 -20.26,-171.437 6.50322,-142 28.1432,-118.198 242.13,-110.195 333.013,-107.856"/>
<polygon fill="#fa057d" stroke="#fa057d" points="333.299,-111.35 343.209,-107.604 333.126,-104.352 333.299,-111.35"/>
<text text-anchor="middle" x="115.003" y="-146.3" font-family="Times,serif" font-size="14.00">subsystem&#45;x&#45;secret::AutocTrCmdGear</text>
</g>
<!-- GEAR&#45;&gt;ECM -->
<g id="edge8" class="edge"><title>GEAR&#45;&gt;ECM</title>
<path fill="none" stroke="#fa057d" d="M155.954,-184.416C175.751,-178.286 201.818,-169.163 223.503,-158 234.575,-152.3 235.228,-147.285 246.503,-142 274.839,-128.717 309.168,-119.634 334.987,-114.056"/>
<polygon fill="#fa057d" stroke="#fa057d" points="335.708,-117.481 344.785,-112.019 334.282,-110.628 335.708,-117.481"/>
<text text-anchor="middle" x="363.503" y="-146.3" font-family="Times,serif" font-size="14.00">subsystem&#45;xxx&#45;public::AutocTrCmdGear</text>
</g>
<!-- BRKR -->
<g id="node4" class="node"><title>BRKR</title>
<ellipse fill="#ea0134" stroke="#ea0134" cx="791.503" cy="-194" rx="35.6194" ry="18"/>
<text text-anchor="middle" x="791.503" y="-190.3" font-family="Times,serif" font-size="14.00">BRKR</text>
</g>
<!-- BRKR&#45;&gt;ECM -->
<g id="edge5" class="edge"><title>BRKR&#45;&gt;ECM</title>
<path fill="none" stroke="#9d0382" d="M756.528,-190.865C690.277,-186.476 549.035,-175.366 503.503,-158 491.868,-153.562 491.65,-147.55 480.503,-142 458.401,-130.995 432.056,-122.328 411.039,-116.372"/>
<polygon fill="#9d0382" stroke="#9d0382" points="411.761,-112.941 401.191,-113.667 409.907,-119.691 411.761,-112.941"/>
<text text-anchor="middle" x="591.003" y="-146.3" font-family="Times,serif" font-size="14.00">subsystem&#45;x&#45;secret::BrkPdlPos</text>
</g>
<!-- BRKR&#45;&gt;ECM -->
<g id="edge10" class="edge"><title>BRKR&#45;&gt;ECM</title>
<path fill="none" stroke="#8f00c8" d="M761.11,-184.608C742.098,-178.663 717.508,-169.672 697.503,-158 687.968,-152.437 688.641,-146.371 678.503,-142 631.854,-121.887 485.563,-112.321 413.889,-108.747"/>
<polygon fill="#8f00c8" stroke="#8f00c8" points="414.034,-105.25 403.876,-108.262 413.695,-112.242 414.034,-105.25"/>
<text text-anchor="middle" x="777.503" y="-146.3" font-family="Times,serif" font-size="14.00">subsystem&#45;xxx&#45;public::BBB</text>
</g>
<!-- GW -->
<g id="node5" class="node"><title>GW</title>
<polygon fill="#e7009f" stroke="#e7009f" points="910.503,-124 856.503,-124 856.503,-88 910.503,-88 910.503,-124"/>
<text text-anchor="middle" x="883.503" y="-102.3" font-family="Times,serif" font-size="14.00">GW</text>
</g>
<!-- BRKR&#45;&gt;GW -->
<g id="edge4" class="edge"><title>BRKR&#45;&gt;GW</title>
<path fill="none" stroke="#9d0382" d="M820.646,-183.753C834.491,-178.14 850.397,-169.751 861.503,-158 867.883,-151.25 872.576,-142.361 875.949,-133.897"/>
<polygon fill="#9d0382" stroke="#9d0382" points="879.304,-134.905 879.323,-124.31 872.701,-132.58 879.304,-134.905"/>
<text text-anchor="middle" x="960.003" y="-146.3" font-family="Times,serif" font-size="14.00">subsystem&#45;x&#45;secret::BrkPdlPos</text>
</g>
<!-- TOP -->
<g id="node8" class="node"><title>TOP</title>
<polygon fill="#ed00f5" stroke="#ed00f5" points="1108.5,-124 1054.5,-124 1054.5,-88 1108.5,-88 1108.5,-124"/>
<text text-anchor="middle" x="1081.5" y="-102.3" font-family="Times,serif" font-size="14.00">TOP</text>
</g>
<!-- BRKR&#45;&gt;TOP -->
<g id="edge9" class="edge"><title>BRKR&#45;&gt;TOP</title>
<path fill="none" stroke="#8f00c8" d="M826.759,-192.014C889.039,-189.666 1015.37,-182.008 1051.5,-158 1060.39,-152.093 1067.01,-142.579 1071.73,-133.36"/>
<polygon fill="#8f00c8" stroke="#8f00c8" points="1075.03,-134.574 1075.98,-124.022 1068.65,-131.672 1075.03,-134.574"/>
<text text-anchor="middle" x="1146.5" y="-146.3" font-family="Times,serif" font-size="14.00">subsystem&#45;xxx&#45;public::BBB</text>
</g>
</g>
</svg>
