<?xml version="1.0" encoding="UTF-8" standalone="no"?>
<!DOCTYPE svg PUBLIC "-//W3C//DTD SVG 1.1//EN"
 "http://www.w3.org/Graphics/SVG/1.1/DTD/svg11.dtd">
<!-- Generated by graphviz version 2.36.0 (20140111.2315)
 -->
<!-- Title: Signals Pages: 1 -->
<svg width="848pt" height="658pt"
 viewBox="0.00 0.00 848.00 658.21" xmlns="http://www.w3.org/2000/svg" xmlns:xlink="http://www.w3.org/1999/xlink">
<g id="graph0" class="graph" transform="scale(1 1) rotate(0) translate(4 654.208)">
<title>Signals</title>
<polygon fill="white" stroke="none" points="-4,4 -4,-654.208 844,-654.208 844,4 -4,4"/>
<!-- ECM -->
<g id="node1" class="node"><title>ECM</title>
<polygon fill="#1bc309" stroke="#1bc309" points="294,-372.208 240,-372.208 240,-336.208 294,-336.208 294,-372.208"/>
<text text-anchor="middle" x="267" y="-350.508" font-family="Times,serif" font-size="14.00">ECM</text>
</g>
<!-- SCS -->
<g id="node2" class="node"><title>SCS</title>
<polygon fill="#5db101" stroke="#5db101" points="572,-345.208 518,-345.208 518,-309.208 572,-309.208 572,-345.208"/>
<text text-anchor="middle" x="545" y="-323.508" font-family="Times,serif" font-size="14.00">SCS</text>
</g>
<!-- ECM&#45;&gt;SCS -->
<g id="edge1" class="edge"><title>ECM&#45;&gt;SCS</title>
<path fill="none" stroke="#670a02" d="M294.323,-361.136C338.34,-371.417 429.04,-386.988 500,-362.208 506.687,-359.872 513.118,-356.049 518.901,-351.769"/>
<polygon fill="#670a02" stroke="#670a02" points="521.316,-354.316 526.865,-345.291 516.899,-348.886 521.316,-354.316"/>
<text text-anchor="middle" x="406" y="-379.008" font-family="Times,serif" font-size="14.00">x&#45;secret::AcceActPos</text>
</g>
<!-- ECM&#45;&gt;SCS -->
<g id="edge2" class="edge"><title>ECM&#45;&gt;SCS</title>
<path fill="none" stroke="#07d805" d="M294.369,-346.814C300.14,-345.421 306.245,-344.118 312,-343.208 380.627,-332.35 461.83,-328.859 507.687,-327.738"/>
<polygon fill="#07d805" stroke="#07d805" points="507.816,-331.236 517.737,-327.517 507.662,-324.238 507.816,-331.236"/>
<text text-anchor="middle" x="406" y="-347.008" font-family="Times,serif" font-size="14.00">x&#45;secret::AcceActPosV</text>
</g>
<!-- ECM&#45;&gt;SCS -->
<g id="edge6" class="edge"><title>ECM&#45;&gt;SCS</title>
<path fill="none" stroke="#0ba808" d="M280.332,-335.776C288.109,-325.882 299.109,-314.632 312,-309.208 389.014,-276.799 418.014,-293.086 500,-309.208 502.809,-309.76 505.665,-310.493 508.503,-311.348"/>
<polygon fill="#0ba808" stroke="#0ba808" points="507.396,-314.668 517.991,-314.637 509.689,-308.055 507.396,-314.668"/>
<text text-anchor="middle" x="406" y="-313.008" font-family="Times,serif" font-size="14.00">auto&#45;s60::AccelActuPos</text>
</g>
<!-- ECM&#45;&gt;SCS -->
<g id="edge7" class="edge"><title>ECM&#45;&gt;SCS</title>
<path fill="none" stroke="#7a9e0f" d="M271.957,-336.034C277.317,-316.368 288.985,-285.977 312,-272.208 347.851,-250.758 462.346,-254.11 500,-272.208 512.436,-278.185 522.457,-289.578 529.777,-300.451"/>
<polygon fill="#7a9e0f" stroke="#7a9e0f" points="526.808,-302.305 535.062,-308.947 532.751,-298.607 526.808,-302.305"/>
<text text-anchor="middle" x="406" y="-276.008" font-family="Times,serif" font-size="14.00">auto&#45;s60::AccelActuPosV</text>
</g>
<!-- ECM&#45;&gt;SCS -->
<g id="edge8" class="edge"><title>ECM&#45;&gt;SCS</title>
<path fill="none" stroke="#72910a" d="M268.909,-336.027C271.328,-309.547 280.125,-261.14 312,-239.208 346.417,-215.526 464.462,-217.244 500,-239.208 521.007,-252.19 532.32,-278.576 538.188,-299.085"/>
<polygon fill="#72910a" stroke="#72910a" points="534.829,-300.075 540.717,-308.883 541.607,-298.326 534.829,-300.075"/>
<text text-anchor="middle" x="406" y="-243.008" font-family="Times,serif" font-size="14.00">auto&#45;s60::AccelEfctvPos</text>
</g>
<!-- ECM&#45;&gt;SCS -->
<g id="edge21" class="edge"><title>ECM&#45;&gt;SCS</title>
<path fill="none" stroke="#678200" d="M271.727,-372.446C276.92,-392.565 288.478,-423.975 312,-438.208 347.744,-459.835 465.442,-461.683 500,-438.208 526.977,-419.882 537.414,-382.159 541.452,-355.801"/>
<polygon fill="#678200" stroke="#678200" points="544.955,-356.004 542.783,-345.634 538.015,-355.095 544.955,-356.004"/>
<text text-anchor="middle" x="406" y="-458.008" font-family="Times,serif" font-size="14.00">auto&#45;s60::AutocTrCmddGear</text>
</g>
<!-- SCS&#45;&gt;ECM -->
<g id="edge19" class="edge"><title>SCS&#45;&gt;ECM</title>
<path fill="none" stroke="#d7450e" d="M537.722,-345.482C531.108,-361.563 518.982,-383.964 500,-394.208 426.468,-433.889 389.934,-424.337 312,-394.208 303.695,-390.997 295.992,-385.409 289.427,-379.41"/>
<polygon fill="#d7450e" stroke="#d7450e" points="291.835,-376.869 282.276,-372.298 286.898,-381.832 291.835,-376.869"/>
<text text-anchor="middle" x="406" y="-424.008" font-family="Times,serif" font-size="14.00">auto&#45;s60::AutoHoldSysSts</text>
</g>
<!-- SDM -->
<g id="node6" class="node"><title>SDM</title>
<polygon fill="#f78600" stroke="#f78600" points="828,-573.208 774,-573.208 774,-537.208 828,-537.208 828,-573.208"/>
<text text-anchor="middle" x="801" y="-551.508" font-family="Times,serif" font-size="14.00">SDM</text>
</g>
<!-- SCS&#45;&gt;SDM -->
<g id="edge9" class="edge"><title>SCS&#45;&gt;SDM</title>
<path fill="none" stroke="#12290f" d="M545.914,-345.499C546.073,-402.457 549.912,-574.889 590,-609.208 641.994,-653.718 680.53,-634.824 744,-609.208 758.412,-603.391 771.182,-591.893 780.875,-580.996"/>
<polygon fill="#12290f" stroke="#12290f" points="783.621,-583.168 787.368,-573.258 778.259,-578.669 783.621,-583.168"/>
<text text-anchor="middle" x="667" y="-639.008" font-family="Times,serif" font-size="14.00">auto&#45;s60::ABSA</text>
</g>
<!-- SCS&#45;&gt;SDM -->
<g id="edge12" class="edge"><title>SCS&#45;&gt;SDM</title>
<path fill="none" stroke="#762204" d="M546.403,-345.572C547.964,-397.293 555.404,-542.292 590,-571.208 616.258,-593.154 710.109,-575.954 744,-571.208 750.506,-570.296 757.316,-568.817 763.857,-567.117"/>
<polygon fill="#762204" stroke="#762204" points="765.153,-570.389 773.833,-564.313 763.259,-563.65 765.153,-570.389"/>
<text text-anchor="middle" x="667" y="-585.008" font-family="Times,serif" font-size="14.00">auto&#45;s60::ABSF</text>
</g>
<!-- SCS&#45;&gt;SDM -->
<g id="edge16" class="edge"><title>SCS&#45;&gt;SDM</title>
<path fill="none" stroke="#beed02" d="M547.224,-345.493C550.679,-391.124 562.127,-508.144 590,-533.208 596.367,-538.933 705.335,-548.022 763.722,-552.514"/>
<polygon fill="#beed02" stroke="#beed02" points="763.763,-556.027 774,-553.297 764.295,-549.047 763.763,-556.027"/>
<text text-anchor="middle" x="667" y="-554.008" font-family="Times,serif" font-size="14.00">auto&#45;s60::ABSAIO</text>
</g>
<!-- SCS&#45;&gt;SDM -->
<g id="edge26" class="edge"><title>SCS&#45;&gt;SDM</title>
<path fill="none" stroke="#62c90c" d="M548.176,-345.252C553.287,-384.44 567.364,-475.406 590,-495.208 615.953,-517.911 711.944,-501.502 744,-514.208 753.997,-518.17 763.831,-524.353 772.399,-530.727"/>
<polygon fill="#62c90c" stroke="#62c90c" points="770.477,-533.668 780.504,-537.088 774.799,-528.161 770.477,-533.668"/>
<text text-anchor="middle" x="667" y="-518.008" font-family="Times,serif" font-size="14.00">auto&#45;s60::BrkFludLvlLow</text>
</g>
<!-- SCS&#45;&gt;SDM -->
<g id="edge29" class="edge"><title>SCS&#45;&gt;SDM</title>
<path fill="none" stroke="#655f0a" d="M546.972,-345.455C549.467,-372.717 558.357,-423.703 590,-450.208 643.213,-494.779 685.215,-439.295 744,-476.208 763.461,-488.428 778.105,-510.12 787.528,-527.686"/>
<polygon fill="#655f0a" stroke="#655f0a" points="784.575,-529.602 792.223,-536.934 790.817,-526.433 784.575,-529.602"/>
<text text-anchor="middle" x="667" y="-480.008" font-family="Times,serif" font-size="14.00">auto&#45;s60::BrkFludLvlLowV</text>
</g>
<!-- TCCM -->
<g id="node7" class="node"><title>TCCM</title>
<polygon fill="#202d06" stroke="#202d06" points="829,-440.208 773,-440.208 773,-404.208 829,-404.208 829,-440.208"/>
<text text-anchor="middle" x="801" y="-418.508" font-family="Times,serif" font-size="14.00">TCCM</text>
</g>
<!-- SCS&#45;&gt;TCCM -->
<g id="edge10" class="edge"><title>SCS&#45;&gt;TCCM</title>
<path fill="none" stroke="#12290f" d="M548.898,-345.501C553.436,-367.318 564.503,-402.883 590,-419.208 617.579,-436.865 709.845,-431.22 762.443,-426.281"/>
<polygon fill="#12290f" stroke="#12290f" points="763.102,-429.733 772.715,-425.278 762.422,-422.766 763.102,-429.733"/>
<text text-anchor="middle" x="667" y="-435.008" font-family="Times,serif" font-size="14.00">auto&#45;s60::ABSA</text>
</g>
<!-- SCS&#45;&gt;TCCM -->
<g id="edge13" class="edge"><title>SCS&#45;&gt;TCCM</title>
<path fill="none" stroke="#762204" d="M560.061,-345.242C567.927,-354.104 578.461,-364.154 590,-370.208 651.749,-402.603 677.05,-380.712 744,-400.208 750.252,-402.028 756.781,-404.267 763.08,-406.612"/>
<polygon fill="#762204" stroke="#762204" points="762.128,-409.996 772.717,-410.34 764.653,-403.468 762.128,-409.996"/>
<text text-anchor="middle" x="667" y="-404.008" font-family="Times,serif" font-size="14.00">auto&#45;s60::ABSF</text>
</g>
<!-- TCM -->
<g id="node8" class="node"><title>TCM</title>
<polygon fill="#a92504" stroke="#a92504" points="828,-345.208 774,-345.208 774,-309.208 828,-309.208 828,-345.208"/>
<text text-anchor="middle" x="801" y="-323.508" font-family="Times,serif" font-size="14.00">TCM</text>
</g>
<!-- SCS&#45;&gt;TCM -->
<g id="edge11" class="edge"><title>SCS&#45;&gt;TCM</title>
<path fill="none" stroke="#12290f" d="M572.114,-338.387C577.901,-340.387 584.076,-342.164 590,-343.208 657.406,-355.083 676.217,-352.701 744,-343.208 750.506,-342.296 757.316,-340.817 763.857,-339.117"/>
<polygon fill="#12290f" stroke="#12290f" points="765.153,-342.389 773.833,-336.313 763.259,-335.65 765.153,-342.389"/>
<text text-anchor="middle" x="667" y="-355.008" font-family="Times,serif" font-size="14.00">auto&#45;s60::ABSA</text>
</g>
<!-- SCS&#45;&gt;TCM -->
<g id="edge14" class="edge"><title>SCS&#45;&gt;TCM</title>
<path fill="none" stroke="#762204" d="M572.043,-325.137C577.944,-324.75 584.184,-324.406 590,-324.208 658.405,-321.878 675.58,-322.376 744,-324.208 750.387,-324.379 757.18,-324.659 763.75,-324.982"/>
<polygon fill="#762204" stroke="#762204" points="763.63,-328.48 773.801,-325.513 764,-321.49 763.63,-328.48"/>
<text text-anchor="middle" x="667" y="-328.008" font-family="Times,serif" font-size="14.00">auto&#45;s60::ABSF</text>
</g>
<!-- SCS&#45;&gt;TCM -->
<g id="edge20" class="edge"><title>SCS&#45;&gt;TCM</title>
<path fill="none" stroke="#d7450e" d="M572.176,-310.936C577.856,-308.155 583.973,-305.688 590,-304.208 656.469,-287.883 676.851,-290.955 744,-304.208 750.789,-305.547 757.791,-307.72 764.446,-310.207"/>
<polygon fill="#d7450e" stroke="#d7450e" points="763.301,-313.52 773.884,-314.018 765.922,-307.029 763.301,-313.52"/>
<text text-anchor="middle" x="667" y="-308.008" font-family="Times,serif" font-size="14.00">auto&#45;s60::AutoHoldSysSts</text>
</g>
<!-- IPK -->
<g id="node9" class="node"><title>IPK</title>
<polygon fill="#d42f0f" stroke="#d42f0f" points="828,-193.208 774,-193.208 774,-157.208 828,-157.208 828,-193.208"/>
<text text-anchor="middle" x="801" y="-171.508" font-family="Times,serif" font-size="14.00">IPK</text>
</g>
<!-- SCS&#45;&gt;IPK -->
<g id="edge15" class="edge"><title>SCS&#45;&gt;IPK</title>
<path fill="none" stroke="#beed02" d="M556.979,-309.074C564.837,-297.536 576.405,-283.136 590,-274.208 649.602,-235.064 682.324,-264.994 744,-229.208 756.753,-221.808 768.814,-210.899 778.453,-200.819"/>
<polygon fill="#beed02" stroke="#beed02" points="781.132,-203.076 785.323,-193.345 775.979,-198.339 781.132,-203.076"/>
<text text-anchor="middle" x="667" y="-278.008" font-family="Times,serif" font-size="14.00">auto&#45;s60::ABSAIO</text>
</g>
<!-- SCS&#45;&gt;IPK -->
<g id="edge17" class="edge"><title>SCS&#45;&gt;IPK</title>
<path fill="none" stroke="#162d0b" d="M547.216,-308.784C550.023,-282.397 559.307,-234.37 590,-210.208 617.093,-188.878 710.209,-198.076 744,-191.208 750.503,-189.886 757.351,-188.19 763.941,-186.4"/>
<polygon fill="#162d0b" stroke="#162d0b" points="765.332,-189.643 773.997,-183.547 763.422,-182.909 765.332,-189.643"/>
<text text-anchor="middle" x="667" y="-214.008" font-family="Times,serif" font-size="14.00">auto&#45;s60::AutoHoldMsg</text>
</g>
<!-- SCS&#45;&gt;IPK -->
<g id="edge18" class="edge"><title>SCS&#45;&gt;IPK</title>
<path fill="none" stroke="#d7450e" d="M548.431,-308.951C553.811,-271.652 568.017,-188.819 590,-172.208 616.454,-152.218 711.315,-162.146 764.031,-169.571"/>
<polygon fill="#d7450e" stroke="#d7450e" points="763.58,-173.042 773.979,-171.013 764.585,-166.114 763.58,-173.042"/>
<text text-anchor="middle" x="667" y="-176.008" font-family="Times,serif" font-size="14.00">auto&#45;s60::AutoHoldSysSts</text>
</g>
<!-- SCS&#45;&gt;IPK -->
<g id="edge24" class="edge"><title>SCS&#45;&gt;IPK</title>
<path fill="none" stroke="#62c90c" d="M547.525,-309.06C551.506,-266.624 563.771,-162.93 590,-142.208 643.706,-99.7771 677.967,-124.199 744,-142.208 751.808,-144.337 759.636,-147.863 766.861,-151.837"/>
<polygon fill="#62c90c" stroke="#62c90c" points="765.254,-154.953 775.642,-157.037 768.821,-148.93 765.254,-154.953"/>
<text text-anchor="middle" x="667" y="-146.008" font-family="Times,serif" font-size="14.00">auto&#45;s60::BrkFludLvlLow</text>
</g>
<!-- SCS&#45;&gt;IPK -->
<g id="edge27" class="edge"><title>SCS&#45;&gt;IPK</title>
<path fill="none" stroke="#655f0a" d="M546.664,-309.061C548.875,-260.025 557.792,-126.772 590,-100.208 616.401,-78.4326 713.407,-84.8702 744,-100.208 763.856,-110.162 778.473,-130.868 787.785,-148.006"/>
<polygon fill="#655f0a" stroke="#655f0a" points="784.748,-149.755 792.413,-157.07 790.983,-146.572 784.748,-149.755"/>
<text text-anchor="middle" x="667" y="-104.008" font-family="Times,serif" font-size="14.00">auto&#45;s60::BrkFludLvlLowV</text>
</g>
<!-- Telematics -->
<g id="node11" class="node"><title>Telematics</title>
<polygon fill="#83f80d" stroke="#83f80d" points="839.5,-60.2076 762.5,-60.2076 762.5,-24.2076 839.5,-24.2076 839.5,-60.2076"/>
<text text-anchor="middle" x="801" y="-38.5076" font-family="Times,serif" font-size="14.00">Telematics</text>
</g>
<!-- SCS&#45;&gt;Telematics -->
<g id="edge25" class="edge"><title>SCS&#45;&gt;Telematics</title>
<path fill="none" stroke="#62c90c" d="M546.358,-309.018C547.811,-255.543 555.019,-100.51 590,-67.2076 612.546,-45.7431 697.363,-41.7453 752.063,-41.4924"/>
<polygon fill="#62c90c" stroke="#62c90c" points="752.242,-44.9924 762.239,-41.4865 752.237,-37.9924 752.242,-44.9924"/>
<text text-anchor="middle" x="667" y="-71.0076" font-family="Times,serif" font-size="14.00">auto&#45;s60::BrkFludLvlLow</text>
</g>
<!-- SCS&#45;&gt;Telematics -->
<g id="edge28" class="edge"><title>SCS&#45;&gt;Telematics</title>
<path fill="none" stroke="#655f0a" d="M545.689,-309.2C545.082,-249.649 546.657,-60.7286 590,-23.2076 634.536,15.3469 706.055,-2.07395 753.04,-20.3341"/>
<polygon fill="#655f0a" stroke="#655f0a" points="751.801,-23.6084 762.384,-24.1021 754.419,-17.1163 751.801,-23.6084"/>
<text text-anchor="middle" x="667" y="-27.0076" font-family="Times,serif" font-size="14.00">auto&#45;s60::BrkFludLvlLowV</text>
</g>
<!-- GEAR -->
<g id="node3" class="node"><title>GEAR</title>
<polygon fill="#f7f906" stroke="#f7f906" points="54,-372.208 0,-372.208 0,-336.208 54,-336.208 54,-372.208"/>
<text text-anchor="middle" x="27" y="-350.508" font-family="Times,serif" font-size="14.00">GEAR</text>
</g>
<!-- GEAR&#45;&gt;ECM -->
<g id="edge3" class="edge"><title>GEAR&#45;&gt;ECM</title>
<path fill="none" stroke="#945c0f" d="M54.3795,-354.208C97.1134,-354.208 181.551,-354.208 229.848,-354.208"/>
<polygon fill="#945c0f" stroke="#945c0f" points="229.865,-357.708 239.865,-354.208 229.865,-350.708 229.865,-357.708"/>
<text text-anchor="middle" x="147" y="-358.008" font-family="Times,serif" font-size="14.00">x&#45;secret::AutocTrCmdGear</text>
</g>
<!-- BRKR -->
<g id="node4" class="node"><title>BRKR</title>
<polygon fill="#ab4202" stroke="#ab4202" points="54,-437.208 0,-437.208 0,-401.208 54,-401.208 54,-437.208"/>
<text text-anchor="middle" x="27" y="-415.508" font-family="Times,serif" font-size="14.00">BRKR</text>
</g>
<!-- BRKR&#45;&gt;ECM -->
<g id="edge5" class="edge"><title>BRKR&#45;&gt;ECM</title>
<path fill="none" stroke="#0dc30f" d="M54.1336,-414.52C91.7741,-407.43 163.19,-392.711 222,-373.208 224.74,-372.299 227.544,-371.288 230.347,-370.219"/>
<polygon fill="#0dc30f" stroke="#0dc30f" points="231.798,-373.407 239.766,-366.424 229.182,-366.914 231.798,-373.407"/>
<text text-anchor="middle" x="147" y="-414.008" font-family="Times,serif" font-size="14.00">x&#45;secret::BrkPdlPos</text>
</g>
<!-- GW -->
<g id="node5" class="node"><title>GW</title>
<polygon fill="#c17d01" stroke="#c17d01" points="294,-508.208 240,-508.208 240,-472.208 294,-472.208 294,-508.208"/>
<text text-anchor="middle" x="267" y="-486.508" font-family="Times,serif" font-size="14.00">GW</text>
</g>
<!-- BRKR&#45;&gt;GW -->
<g id="edge4" class="edge"><title>BRKR&#45;&gt;GW</title>
<path fill="none" stroke="#0dc30f" d="M54.3795,-427.077C97.203,-439.852 181.905,-465.12 230.151,-479.513"/>
<polygon fill="#0dc30f" stroke="#0dc30f" points="229.282,-482.906 239.865,-482.411 231.283,-476.198 229.282,-482.906"/>
<text text-anchor="middle" x="147" y="-480.008" font-family="Times,serif" font-size="14.00">x&#45;secret::BrkPdlPos</text>
</g>
<!-- GW&#45;&gt;SCS -->
<g id="edge30" class="edge"><title>GW&#45;&gt;SCS</title>
<path fill="none" stroke="#0dc30f" d="M294.001,-496.887C340.811,-507.242 439.966,-521.321 500,-473.208 535.323,-444.898 543.089,-389.269 544.352,-355.446"/>
<polygon fill="#0dc30f" stroke="#0dc30f" points="547.854,-355.363 544.56,-345.294 540.856,-355.22 547.854,-355.363"/>
<text text-anchor="middle" x="406" y="-510.008" font-family="Times,serif" font-size="14.00">auto&#45;s60::BrkPdlPos</text>
</g>
<!-- TCU -->
<g id="node10" class="node"><title>TCU</title>
<polygon fill="#3cdb00" stroke="#3cdb00" points="294,-193.208 240,-193.208 240,-157.208 294,-157.208 294,-193.208"/>
<text text-anchor="middle" x="267" y="-171.508" font-family="Times,serif" font-size="14.00">TCU</text>
</g>
<!-- TCU&#45;&gt;SCS -->
<g id="edge22" class="edge"><title>TCU&#45;&gt;SCS</title>
<path fill="none" stroke="#a52a0f" d="M294.317,-175.005C348.234,-175.117 468.801,-178.237 500,-203.208 528.939,-226.37 538.87,-269.99 542.262,-298.827"/>
<polygon fill="#a52a0f" stroke="#a52a0f" points="538.809,-299.471 543.268,-309.081 545.775,-298.787 538.809,-299.471"/>
<text text-anchor="middle" x="406" y="-207.008" font-family="Times,serif" font-size="14.00">auto&#45;s60::AutocTrGearShftDircn</text>
</g>
<!-- TCU&#45;&gt;SCS -->
<g id="edge23" class="edge"><title>TCU&#45;&gt;SCS</title>
<path fill="none" stroke="#6bc50a" d="M294.21,-162.689C340.915,-142.416 439.317,-109.162 500,-156.208 522.381,-173.559 535.376,-254.939 540.874,-298.886"/>
<polygon fill="#6bc50a" stroke="#6bc50a" points="537.414,-299.425 542.083,-308.936 544.364,-298.59 537.414,-299.425"/>
<text text-anchor="middle" x="406" y="-160.008" font-family="Times,serif" font-size="14.00">auto&#45;s60::AutocTrGearShftDircnF</text>
</g>
</g>
</svg>
