<?xml version="1.0" encoding="UTF-8" standalone="no"?>
<!DOCTYPE svg PUBLIC "-//W3C//DTD SVG 1.1//EN"
 "http://www.w3.org/Graphics/SVG/1.1/DTD/svg11.dtd">
<!-- Generated by graphviz version 2.36.0 (20140111.2315)
 -->
<!-- Title: Signals Pages: 1 -->
<svg width="690pt" height="246pt"
 viewBox="0.00 0.00 690.00 246.00" xmlns="http://www.w3.org/2000/svg" xmlns:xlink="http://www.w3.org/1999/xlink">
<g id="graph0" class="graph" transform="scale(1 1) rotate(0) translate(4 242)">
<title>Signals</title>
<polygon fill="white" stroke="none" points="-4,4 -4,-242 686,-242 686,4 -4,4"/>
<!-- ECM -->
<g id="node1" class="node"><title>ECM</title>
<polygon fill="#a500d7" stroke="#a500d7" points="380,-185 326,-185 326,-149 380,-149 380,-185"/>
<text text-anchor="middle" x="353" y="-163.3" font-family="Times,serif" font-size="14.00">ECM</text>
</g>
<!-- SCS -->
<g id="node2" class="node"><title>SCS</title>
<polygon fill="#d500eb" stroke="#d500eb" points="682,-231 628,-231 628,-195 682,-195 682,-231"/>
<text text-anchor="middle" x="655" y="-209.3" font-family="Times,serif" font-size="14.00">SCS</text>
</g>
<!-- ECM&#45;&gt;SCS -->
<g id="edge1" class="edge"><title>ECM&#45;&gt;SCS</title>
<path fill="none" stroke="#7003ca" d="M371.633,-185.239C379.098,-191.757 388.307,-198.38 398,-202 472.116,-229.682 566.808,-224.21 617.715,-218.29"/>
<polygon fill="#7003ca" stroke="#7003ca" points="618.396,-221.732 627.891,-217.031 617.537,-214.785 618.396,-221.732"/>
<text text-anchor="middle" x="504" y="-226.8" font-family="Times,serif" font-size="14.00">subsystem&#45;x&#45;secret::AcceActPos</text>
</g>
<!-- ECM&#45;&gt;SCS -->
<g id="edge2" class="edge"><title>ECM&#45;&gt;SCS</title>
<path fill="none" stroke="#7d0424" d="M380.189,-166.888C436.645,-166.93 568.088,-168.625 610,-183 614.673,-184.603 619.313,-186.844 623.729,-189.387"/>
<polygon fill="#7d0424" stroke="#7d0424" points="622.105,-192.502 632.419,-194.922 625.865,-186.598 622.105,-192.502"/>
<text text-anchor="middle" x="504" y="-186.8" font-family="Times,serif" font-size="14.00">subsystem&#45;x&#45;secret::AcceActPosV</text>
</g>
<!-- WIKI -->
<g id="node6" class="node"><title>WIKI</title>
<polygon fill="#1a0138" stroke="#1a0138" points="682,-166 628,-166 628,-130 682,-130 682,-166"/>
<text text-anchor="middle" x="655" y="-144.3" font-family="Times,serif" font-size="14.00">WIKI</text>
</g>
<!-- ECM&#45;&gt;WIKI -->
<g id="edge6" class="edge"><title>ECM&#45;&gt;WIKI</title>
<path fill="none" stroke="#7003ca" d="M380.013,-154.447C385.806,-152.196 392.01,-150.19 398,-149 475.123,-133.678 567.913,-139.056 617.882,-143.841"/>
<polygon fill="#7003ca" stroke="#7003ca" points="617.574,-147.327 627.874,-144.845 618.274,-140.362 617.574,-147.327"/>
<text text-anchor="middle" x="504" y="-152.8" font-family="Times,serif" font-size="14.00">subsystem&#45;xxx&#45;public::AcceActPos</text>
</g>
<!-- BBC -->
<g id="node7" class="node"><title>BBC</title>
<polygon fill="#9000c9" stroke="#9000c9" points="682,-112 628,-112 628,-76 682,-76 682,-112"/>
<text text-anchor="middle" x="655" y="-90.3" font-family="Times,serif" font-size="14.00">BBC</text>
</g>
<!-- ECM&#45;&gt;BBC -->
<g id="edge7" class="edge"><title>ECM&#45;&gt;BBC</title>
<path fill="none" stroke="#7d0424" d="M365.572,-148.817C373.368,-138.22 384.649,-125.666 398,-119 469.391,-83.3537 565.845,-85.2897 617.592,-89.71"/>
<polygon fill="#7d0424" stroke="#7d0424" points="617.346,-93.2022 627.628,-90.6475 617.997,-86.2325 617.346,-93.2022"/>
<text text-anchor="middle" x="504" y="-122.8" font-family="Times,serif" font-size="14.00">subsystem&#45;xxx&#45;public::AcceActPosV</text>
</g>
<!-- GEAR -->
<g id="node3" class="node"><title>GEAR</title>
<polygon fill="#c30122" stroke="#c30122" points="55.5,-223 0.5,-223 0.5,-187 55.5,-187 55.5,-223"/>
<text text-anchor="middle" x="28" y="-201.3" font-family="Times,serif" font-size="14.00">GEAR</text>
</g>
<!-- GEAR&#45;&gt;ECM -->
<g id="edge3" class="edge"><title>GEAR&#45;&gt;ECM</title>
<path fill="none" stroke="#fa057d" d="M55.7636,-210.3C106.654,-219.182 220.133,-233.216 308,-202 314.674,-199.629 321.1,-195.79 326.882,-191.506"/>
<polygon fill="#fa057d" stroke="#fa057d" points="329.295,-194.054 334.846,-185.03 324.879,-188.623 329.295,-194.054"/>
<text text-anchor="middle" x="191" y="-224.8" font-family="Times,serif" font-size="14.00">subsystem&#45;x&#45;secret::AutocTrCmdGear</text>
</g>
<!-- GEAR&#45;&gt;ECM -->
<g id="edge8" class="edge"><title>GEAR&#45;&gt;ECM</title>
<path fill="none" stroke="#fa057d" d="M55.9363,-189.7C61.7335,-187.02 67.943,-184.586 74,-183 118.633,-171.313 251.255,-168.159 315.845,-167.31"/>
<polygon fill="#fa057d" stroke="#fa057d" points="316.015,-170.809 325.972,-167.189 315.931,-163.809 316.015,-170.809"/>
<text text-anchor="middle" x="191" y="-186.8" font-family="Times,serif" font-size="14.00">subsystem&#45;xxx&#45;public::AutocTrCmdGear</text>
</g>
<!-- BRKR -->
<g id="node4" class="node"><title>BRKR</title>
<polygon fill="#ea0134" stroke="#ea0134" points="55.5,-109 0.5,-109 0.5,-73 55.5,-73 55.5,-109"/>
<text text-anchor="middle" x="28" y="-87.3" font-family="Times,serif" font-size="14.00">BRKR</text>
</g>
<!-- BRKR&#45;&gt;ECM -->
<g id="edge5" class="edge"><title>BRKR&#45;&gt;ECM</title>
<path fill="none" stroke="#9d0382" d="M47.6337,-109.353C55.2102,-115.719 64.4311,-122.207 74,-126 171.108,-164.493 206.807,-122.087 308,-148 310.796,-148.716 313.642,-149.587 316.473,-150.557"/>
<polygon fill="#9d0382" stroke="#9d0382" points="315.357,-153.877 325.949,-154.161 317.846,-147.335 315.357,-153.877"/>
<text text-anchor="middle" x="191" y="-151.8" font-family="Times,serif" font-size="14.00">subsystem&#45;x&#45;secret::BrkPdlPos</text>
</g>
<!-- BRKR&#45;&gt;ECM -->
<g id="edge10" class="edge"><title>BRKR&#45;&gt;ECM</title>
<path fill="none" stroke="#8f00c8" d="M55.6844,-91.2444C121.193,-92.0258 286.204,-95.159 308,-107 321.387,-114.273 331.777,-127.579 339.092,-139.815"/>
<polygon fill="#8f00c8" stroke="#8f00c8" points="336.183,-141.788 344.084,-148.847 342.309,-138.402 336.183,-141.788"/>
<text text-anchor="middle" x="191" y="-110.8" font-family="Times,serif" font-size="14.00">subsystem&#45;xxx&#45;public::BBB</text>
</g>
<!-- GW -->
<g id="node5" class="node"><title>GW</title>
<polygon fill="#e7009f" stroke="#e7009f" points="380,-90 326,-90 326,-54 380,-54 380,-90"/>
<text text-anchor="middle" x="353" y="-68.3" font-family="Times,serif" font-size="14.00">GW</text>
</g>
<!-- BRKR&#45;&gt;GW -->
<g id="edge4" class="edge"><title>BRKR&#45;&gt;GW</title>
<path fill="none" stroke="#9d0382" d="M55.6258,-78.4447C61.5493,-76.1939 67.8879,-74.1885 74,-73 159.278,-56.4178 262.073,-62.6599 315.591,-67.8277"/>
<polygon fill="#9d0382" stroke="#9d0382" points="315.317,-71.3177 325.618,-68.8398 316.02,-64.3531 315.317,-71.3177"/>
<text text-anchor="middle" x="191" y="-76.8" font-family="Times,serif" font-size="14.00">subsystem&#45;x&#45;secret::BrkPdlPos</text>
</g>
<!-- TOP -->
<g id="node8" class="node"><title>TOP</title>
<polygon fill="#ed00f5" stroke="#ed00f5" points="380,-36 326,-36 326,-0 380,-0 380,-36"/>
<text text-anchor="middle" x="353" y="-14.3" font-family="Times,serif" font-size="14.00">TOP</text>
</g>
<!-- BRKR&#45;&gt;TOP -->
<g id="edge9" class="edge"><title>BRKR&#45;&gt;TOP</title>
<path fill="none" stroke="#8f00c8" d="M40.9064,-72.7758C48.9066,-62.1634 60.4471,-49.6082 74,-43 153.384,-4.29353 260.639,-8.02852 315.845,-13.3924"/>
<polygon fill="#8f00c8" stroke="#8f00c8" points="315.539,-16.8795 325.849,-14.4389 316.268,-9.91744 315.539,-16.8795"/>
<text text-anchor="middle" x="191" y="-46.8" font-family="Times,serif" font-size="14.00">subsystem&#45;xxx&#45;public::BBB</text>
</g>
</g>
</svg>
