<?xml version="1.0" encoding="UTF-8" standalone="no"?>
<!DOCTYPE svg PUBLIC "-//W3C//DTD SVG 1.1//EN"
 "http://www.w3.org/Graphics/SVG/1.1/DTD/svg11.dtd">
<!-- Generated by graphviz version 2.36.0 (20140111.2315)
 -->
<!-- Title: G Pages: 1 -->
<svg width="308pt" height="296pt"
 viewBox="0.00 0.00 308.00 296.00" xmlns="http://www.w3.org/2000/svg" xmlns:xlink="http://www.w3.org/1999/xlink">
<g id="graph0" class="graph" transform="scale(1 1) rotate(0) translate(4 292)">
<title>G</title>
<polygon fill="white" stroke="none" points="-4,4 -4,-292 304,-292 304,4 -4,4"/>
<!-- developer0 -->
<g id="node1" class="node"><title>developer0</title>
<polygon fill="purple" stroke="purple" points="66,-288 0,-288 0,-252 66,-252 66,-288"/>
<text text-anchor="middle" x="33" y="-266.3" font-family="Times,serif" font-size="14.00">开发者0</text>
</g>
<!-- git -->
<g id="node5" class="node"><title>git</title>
<polygon fill="brown" stroke="brown" points="164,-206 74,-206 70,-202 70,-170 160,-170 164,-174 164,-206"/>
<polyline fill="none" stroke="brown" points="160,-202 70,-202 "/>
<polyline fill="none" stroke="brown" points="160,-202 160,-170 "/>
<polyline fill="none" stroke="brown" points="160,-202 164,-206 "/>
<text text-anchor="middle" x="117" y="-184.3" font-family="Times,serif" font-size="14.00">Git 代码仓库</text>
</g>
<!-- developer0&#45;&gt;git -->
<g id="edge1" class="edge"><title>developer0&#45;&gt;git</title>
<path fill="none" stroke="orange" d="M42.7965,-251.58C48.3084,-242.703 55.7362,-232.103 64,-224 68.3376,-219.747 73.2629,-215.703 78.322,-211.976"/>
<polygon fill="orange" stroke="orange" points="80.6722,-214.604 86.8825,-206.021 76.6747,-208.858 80.6722,-214.604"/>
<text text-anchor="middle" x="88.5" y="-227.1" font-family="Times,serif" font-size="8.00">提交信号变更</text>
</g>
<!-- developer1 -->
<g id="node2" class="node"><title>developer1</title>
<polygon fill="purple" stroke="purple" points="150,-288 84,-288 84,-252 150,-252 150,-288"/>
<text text-anchor="middle" x="117" y="-266.3" font-family="Times,serif" font-size="14.00">开发者1</text>
</g>
<!-- developer1&#45;&gt;git -->
<g id="edge2" class="edge"><title>developer1&#45;&gt;git</title>
<path fill="none" stroke="orange" d="M117,-251.641C117,-241.297 117,-227.941 117,-216.221"/>
<polygon fill="orange" stroke="orange" points="120.5,-216.05 117,-206.05 113.5,-216.05 120.5,-216.05"/>
<text text-anchor="middle" x="141.5" y="-227.1" font-family="Times,serif" font-size="8.00">提交信号变更</text>
</g>
<!-- developer2 -->
<g id="node3" class="node"><title>developer2</title>
<polygon fill="purple" stroke="purple" points="234,-288 168,-288 168,-252 234,-252 234,-288"/>
<text text-anchor="middle" x="201" y="-266.3" font-family="Times,serif" font-size="14.00">开发者2</text>
</g>
<!-- developer2&#45;&gt;git -->
<g id="edge3" class="edge"><title>developer2&#45;&gt;git</title>
<path fill="none" stroke="orange" d="M191.203,-251.58C185.692,-242.703 178.264,-232.103 170,-224 165.662,-219.747 160.737,-215.703 155.678,-211.976"/>
<polygon fill="orange" stroke="orange" points="157.325,-208.858 147.117,-206.021 153.328,-214.604 157.325,-208.858"/>
<text text-anchor="middle" x="202.5" y="-227.1" font-family="Times,serif" font-size="8.00">提交信号变更</text>
</g>
<!-- developer3 -->
<g id="node4" class="node"><title>developer3</title>
<polygon fill="purple" stroke="purple" points="151,-36 85,-36 85,-0 151,-0 151,-36"/>
<text text-anchor="middle" x="118" y="-14.3" font-family="Times,serif" font-size="14.00">开发者n</text>
</g>
<!-- developer3&#45;&gt;git -->
<g id="edge4" class="edge"><title>developer3&#45;&gt;git</title>
<path fill="none" stroke="orange" d="M115.241,-36.0573C113.341,-48.7005 110.988,-66.3752 110,-82 108.331,-108.395 110.788,-138.515 113.238,-159.706"/>
<polygon fill="orange" stroke="orange" points="109.799,-160.411 114.497,-169.907 116.746,-159.553 109.799,-160.411"/>
<text text-anchor="middle" x="134.5" y="-98.1" font-family="Times,serif" font-size="8.00">提交信号变更</text>
</g>
<!-- jenkins -->
<g id="node6" class="node"><title>jenkins</title>
<polygon fill="green" stroke="green" points="269.25,-118 168.75,-118 168.75,-82 269.25,-82 269.25,-118"/>
<text text-anchor="middle" x="219" y="-96.3" font-family="Times,serif" font-size="14.00">持续集成工具</text>
</g>
<!-- git&#45;&gt;jenkins -->
<g id="edge5" class="edge"><title>git&#45;&gt;jenkins</title>
<path fill="none" stroke="black" d="M145.573,-162.909C162.493,-148.643 183.525,-130.91 198.738,-118.084"/>
<polygon fill="black" stroke="black" points="143.03,-160.475 137.641,-169.597 147.543,-165.826 143.03,-160.475"/>
<text text-anchor="middle" x="231.5" y="-140.3" font-family="Times,serif" font-size="14.00">checkout最新代码</text>
</g>
<!-- jenkins&#45;&gt;developer3 -->
<g id="edge7" class="edge"><title>jenkins&#45;&gt;developer3</title>
<path fill="none" stroke="red" stroke-dasharray="1,5" d="M168.69,-85.7517C156.44,-80.5879 144.225,-73.5402 135,-64 130.2,-59.0357 126.727,-52.5836 124.225,-46.1227"/>
<polygon fill="red" stroke="red" points="127.423,-44.6321 121.04,-36.1752 120.756,-46.7662 127.423,-44.6321"/>
<text text-anchor="middle" x="181.5" y="-57.1" font-family="Times,serif" font-size="8.00">提交检查失败, 通知提交人</text>
</g>
<!-- query_system -->
<g id="node7" class="node"><title>query_system</title>
<polygon fill="blue" stroke="blue" points="300.25,-36 199.75,-36 199.75,-0 300.25,-0 300.25,-36"/>
<text text-anchor="middle" x="250" y="-14.3" font-family="Times,serif" font-size="14.00">信号查询系统</text>
</g>
<!-- jenkins&#45;&gt;query_system -->
<g id="edge6" class="edge"><title>jenkins&#45;&gt;query_system</title>
<path fill="none" stroke="green" d="M225.727,-81.6412C229.817,-71.086 235.122,-57.3946 239.729,-45.5051"/>
<polygon fill="green" stroke="green" points="243.043,-46.6392 243.393,-36.0501 236.516,-44.1099 243.043,-46.6392"/>
<text text-anchor="middle" x="260.5" y="-57.1" font-family="Times,serif" font-size="8.00">提交检查通过</text>
</g>
</g>
</svg>
