<?xml version="1.0" encoding="UTF-8" standalone="no"?>
<!DOCTYPE svg PUBLIC "-//W3C//DTD SVG 1.1//EN"
 "http://www.w3.org/Graphics/SVG/1.1/DTD/svg11.dtd">
<!-- Generated by graphviz version 2.36.0 (20140111.2315)
 -->
<!-- Title: G Pages: 1 -->
<svg width="324pt" height="290pt"
 viewBox="0.00 0.00 324.00 290.00" xmlns="http://www.w3.org/2000/svg" xmlns:xlink="http://www.w3.org/1999/xlink">
<g id="graph0" class="graph" transform="scale(1 1) rotate(0) translate(4 286)">
<title>G</title>
<polygon fill="white" stroke="none" points="-4,4 -4,-286 320,-286 320,4 -4,4"/>
<!-- developer0 -->
<g id="node1" class="node"><title>developer0</title>
<polygon fill="purple" stroke="purple" points="66,-282 0,-282 0,-246 66,-246 66,-282"/>
<text text-anchor="middle" x="33" y="-260.3" font-family="Times,serif" font-size="14.00">责任人1</text>
</g>
<!-- git -->
<g id="node5" class="node"><title>git</title>
<polygon fill="brown" stroke="brown" points="169,-200 69,-200 65,-196 65,-164 165,-164 169,-168 169,-200"/>
<polyline fill="none" stroke="brown" points="165,-196 65,-196 "/>
<polyline fill="none" stroke="brown" points="165,-196 165,-164 "/>
<polyline fill="none" stroke="brown" points="165,-196 169,-200 "/>
<text text-anchor="middle" x="117" y="-178.3" font-family="Times,serif" font-size="14.00">Git信号数据库</text>
</g>
<!-- developer0&#45;&gt;git -->
<g id="edge1" class="edge"><title>developer0&#45;&gt;git</title>
<path fill="none" stroke="orange" d="M42.7965,-245.58C48.3084,-236.703 55.7362,-226.103 64,-218 68.3376,-213.747 73.2629,-209.703 78.322,-205.976"/>
<polygon fill="orange" stroke="orange" points="80.6722,-208.604 86.8825,-200.021 76.6747,-202.858 80.6722,-208.604"/>
<text text-anchor="middle" x="88.5" y="-221.1" font-family="Times,serif" font-size="8.00">提交信号变更</text>
</g>
<!-- developer1 -->
<g id="node2" class="node"><title>developer1</title>
<polygon fill="purple" stroke="purple" points="150,-282 84,-282 84,-246 150,-246 150,-282"/>
<text text-anchor="middle" x="117" y="-260.3" font-family="Times,serif" font-size="14.00">责任人2</text>
</g>
<!-- developer1&#45;&gt;git -->
<g id="edge2" class="edge"><title>developer1&#45;&gt;git</title>
<path fill="none" stroke="orange" d="M117,-245.641C117,-235.297 117,-221.941 117,-210.221"/>
<polygon fill="orange" stroke="orange" points="120.5,-210.05 117,-200.05 113.5,-210.05 120.5,-210.05"/>
<text text-anchor="middle" x="141.5" y="-221.1" font-family="Times,serif" font-size="8.00">提交信号变更</text>
</g>
<!-- developer2 -->
<g id="node3" class="node"><title>developer2</title>
<polygon fill="purple" stroke="purple" points="234,-282 168,-282 168,-246 234,-246 234,-282"/>
<text text-anchor="middle" x="201" y="-260.3" font-family="Times,serif" font-size="14.00">责任人3</text>
</g>
<!-- developer2&#45;&gt;git -->
<g id="edge3" class="edge"><title>developer2&#45;&gt;git</title>
<path fill="none" stroke="orange" d="M191.203,-245.58C185.692,-236.703 178.264,-226.103 170,-218 165.662,-213.747 160.737,-209.703 155.678,-205.976"/>
<polygon fill="orange" stroke="orange" points="157.325,-202.858 147.117,-200.021 153.328,-208.604 157.325,-202.858"/>
<text text-anchor="middle" x="202.5" y="-221.1" font-family="Times,serif" font-size="8.00">提交信号变更</text>
</g>
<!-- developer3 -->
<g id="node4" class="node"><title>developer3</title>
<polygon fill="purple" stroke="purple" points="156,-36 80,-36 80,-0 156,-0 156,-36"/>
<text text-anchor="middle" x="118" y="-14.3" font-family="Times,serif" font-size="14.00">责任人n...</text>
</g>
<!-- developer3&#45;&gt;git -->
<g id="edge4" class="edge"><title>developer3&#45;&gt;git</title>
<path fill="none" stroke="orange" d="M115.241,-36.0573C113.341,-48.7005 110.988,-66.3752 110,-82 108.99,-97.9681 109.115,-102.024 110,-118 110.655,-129.824 111.996,-142.839 113.331,-153.955"/>
<polygon fill="orange" stroke="orange" points="109.865,-154.445 114.586,-163.93 116.81,-153.571 109.865,-154.445"/>
<text text-anchor="middle" x="134.5" y="-98.1" font-family="Times,serif" font-size="8.00">提交信号变更</text>
</g>
<!-- jenkins -->
<g id="node6" class="node"><title>jenkins</title>
<polygon fill="green" stroke="green" points="269.25,-118 168.75,-118 168.75,-82 269.25,-82 269.25,-118"/>
<text text-anchor="middle" x="219" y="-96.3" font-family="Times,serif" font-size="14.00">信号集成工具</text>
</g>
<!-- git&#45;&gt;jenkins -->
<g id="edge5" class="edge"><title>git&#45;&gt;jenkins</title>
<path fill="none" stroke="black" d="M146.942,-157.516C163.029,-144.899 182.507,-129.622 197.155,-118.134"/>
<polygon fill="black" stroke="black" points="144.59,-154.913 138.882,-163.838 148.91,-160.421 144.59,-154.913"/>
<text text-anchor="middle" x="199.5" y="-139.1" font-family="Times,serif" font-size="8.00">获取最新数据</text>
</g>
<!-- jenkins&#45;&gt;developer3 -->
<g id="edge7" class="edge"><title>jenkins&#45;&gt;developer3</title>
<path fill="none" stroke="red" stroke-dasharray="1,5" d="M168.523,-87.7611C154.77,-82.5397 140.942,-74.96 131,-64 126.482,-59.0197 123.527,-52.5619 121.595,-46.1007"/>
<polygon fill="red" stroke="red" points="124.963,-45.1272 119.327,-36.1563 118.139,-46.6843 124.963,-45.1272"/>
<text text-anchor="middle" x="185.5" y="-57.1" font-family="Times,serif" font-size="8.00">如果提交检查失败, 通知提交人</text>
</g>
<!-- query_system -->
<g id="node7" class="node"><title>query_system</title>
<polygon fill="blue" stroke="blue" points="316.25,-36 215.75,-36 215.75,-0 316.25,-0 316.25,-36"/>
<text text-anchor="middle" x="266" y="-14.3" font-family="Times,serif" font-size="14.00">信号查询系统</text>
</g>
<!-- jenkins&#45;&gt;query_system -->
<g id="edge6" class="edge"><title>jenkins&#45;&gt;query_system</title>
<path fill="none" stroke="green" d="M232.046,-81.9349C236.081,-76.3501 240.406,-70.0295 244,-64 247.506,-58.1174 250.937,-51.5957 254.007,-45.3847"/>
<polygon fill="green" stroke="green" points="257.331,-46.5478 258.494,-36.017 251.017,-43.5241 257.331,-46.5478"/>
<text text-anchor="middle" x="273.5" y="-57.1" font-family="Times,serif" font-size="8.00">提交检查通过</text>
</g>
</g>
</svg>
